<?xml version="1.0" encoding="UTF-8" standalone="no"?>
<!-- Created with Inkscape (http://www.inkscape.org/) -->

<svg
   width="997.44702mm"
   height="245.61848mm"
   viewBox="0 0 997.44702 245.61848"
   version="1.1"
   id="svg5"
   xmlns="http://www.w3.org/2000/svg"
   xmlns:svg="http://www.w3.org/2000/svg">
  <defs
     id="defs2">
    <filter
       style="color-interpolation-filters:sRGB"
       id="filter11314"
       x="-1.0191451"
       y="-1.0191451"
       width="3.0382901"
       height="3.0382901">
      <feFlood
         flood-opacity="1"
         flood-color="rgb(255,0,0)"
         result="flood"
         id="feFlood11304" />
      <feComposite
         in="SourceGraphic"
         in2="flood"
         operator="in"
         result="composite1"
         id="feComposite11306" />
      <feGaussianBlur
         in="composite1"
         stdDeviation="18"
         result="blur"
         id="feGaussianBlur11308" />
      <feOffset
         dx="0"
         dy="0"
         result="offset"
         id="feOffset11310" />
      <feComposite
         in="SourceGraphic"
         in2="offset"
         operator="over"
         result="composite2"
         id="feComposite11312" />
    </filter>
    <filter
       style="color-interpolation-filters:sRGB"
       id="filter11344"
       x="-0.15132912"
       y="-0.27132526"
       width="1.3026582"
       height="1.5426505">
      <feFlood
         flood-opacity="1"
         flood-color="rgb(255,0,0)"
         result="flood"
         id="feFlood11334" />
      <feComposite
         in="SourceGraphic"
         in2="flood"
         operator="in"
         result="composite1"
         id="feComposite11336" />
      <feGaussianBlur
         in="composite1"
         stdDeviation="18"
         result="blur"
         id="feGaussianBlur11338" />
      <feOffset
         dx="0"
         dy="0"
         result="offset"
         id="feOffset11340" />
      <feComposite
         in="SourceGraphic"
         in2="offset"
         operator="over"
         result="composite2"
         id="feComposite11342" />
    </filter>
  </defs>
  <path
     d="m 69.201139,202.15673 c -1.23692,-0.11993 -3.31986,-0.52848 -4.62875,-0.90786 -13.52322,-3.91996 -22.36557,-16.56604 -21.28295,-30.43833 0.11279,-1.44529 1.0536,-6.73545 2.09068,-11.75591 1.03706,-5.02047 2.71878,-13.17625 3.73711,-18.12396 1.01833,-4.94771 2.13826,-10.36505 2.4887,-12.03854 0.95596,-4.56489 2.10148,-10.10301 3.31092,-16.0073 0.59618,-2.91041 1.67991,-8.14916 2.40831,-11.64166 0.7284,-3.492499 1.61219,-7.778749 1.964,-9.524999 0.35185,-1.74625 0.82876,-4.06797 1.05985,-5.15938 0.23111,-1.0914 1.11823,-5.37765 1.97141,-9.525 0.85314,-4.14734 1.74921,-8.49312 1.99122,-9.65729 1.35427,-6.51444 4.15592,-11.61468 8.83661,-16.08659 4.77877,-4.56559 10.51462,-7.17756 17.23017,-7.84614 2.22094,-0.22114 26.106941,-0.2808 89.286271,-0.22312 l 86.25416,0.0788 1.08916,0.58267 c 2.77857,1.48648 4.07022,3.53608 4.07022,6.45882 0,3.03498 -1.40274,5.28841 -4.0734,6.54378 l -1.23965,0.58272 -87.50025,0.0619 c -79.582831,0.0563 -87.622141,0.10041 -88.847261,0.48776 -3.23181,1.02174 -6.19252,2.98868 -7.97351,5.29714 -2.28415,2.96069 -2.36514,3.2567 -6.68753,24.43525 -1.14824,5.6261 -2.26634,11.03821 -3.30695,16.007289 -0.35044,1.67349 -1.4813,7.15037 -2.51296,12.17084 -1.9793,9.6317 -3.05509,14.83936 -4.09932,19.84375 -0.3492,1.67348 -1.18348,5.72161 -1.85396,8.99583 -0.67049,3.27422 -1.50609,7.32234 -1.85696,8.99583 -3.86905,18.45519 -4.02288,19.56983 -3.15865,22.88789 1.40926,5.41044 5.75083,9.66864 11.23331,11.01759 2.19597,0.54033 221.419791,0.53324 223.572891,-0.007 5.51583,-1.38448 9.74133,-5.58077 11.11467,-11.03775 0.47557,-1.88958 1.2155,-5.40877 4.50058,-21.4053 0.5678,-2.76489 1.57739,-7.64645 2.24356,-10.84791 0.66614,-3.20146 1.80139,-8.72199 2.52275,-12.26789 1.65039,-8.11252 1.70693,-8.29286 3.08113,-9.82125 3.89009,-4.32673 10.51406,-2.77008 12.16287,2.85829 0.52647,1.79721 0.50712,1.92937 -2.11908,14.46835 -0.94482,4.51114 -1.95897,9.39271 -2.25367,10.84791 -0.29471,1.45521 -1.08248,5.26521 -1.75072,8.46667 -0.66818,3.20146 -1.67748,8.08302 -2.2429,10.84792 -0.56544,2.76489 -1.28672,6.27724 -1.60284,7.8052 -1.49484,7.22466 -4.10888,12.10763 -8.96594,16.74805 -4.67541,4.46685 -10.42005,7.12803 -16.89922,7.82847 -3.25421,0.35181 -219.736981,0.35642 -223.364081,0.005 z"
     style="fill:#e6e6e6;stroke-width:0.0700042;filter:url(#filter11344)"
     id="path10816" />
  <circle
     style="fill:#ed4122;fill-opacity:1;stroke-width:0.264583;filter:url(#filter11314)"
     id="path1189"
     cx="137.74873"
     cy="155.62401"
     r="21.194235"
     transform="rotate(90,268.21129,203.49816)" />
  <path
     style="fill:#ed4122;stroke-width:0.264583"
     d="m 884.26032,137.32789 c -2.07701,-0.71419 -3.38728,-1.78977 -4.22278,-3.46638 -1.88399,-3.78065 0.31943,-8.37037 5.09106,-10.60464 2.38175,-1.11523 5.76297,-1.31875 7.98502,-0.48062 3.12777,1.17976 4.59809,3.17775 4.59809,6.24818 0,2.18649 -0.57328,3.49804 -2.36731,5.41602 -2.81159,3.00581 -7.32245,4.18091 -11.08408,2.88744 z"
     id="path23" />
  <path
     style="fill:#f3c249;stroke-width:0.264583"
     d="m 118.16304,174.7515 c -1.14288,-0.24169 -3.41512,-1.88815 -4.09744,-2.969 -0.84984,-1.34624 -1.309,-3.18433 -1.14913,-4.60015 0.31708,-2.80816 7.28206,-17.31559 13.11145,-27.31001 15.73331,-26.97451 33.41205,-46.786149 53.50447,-59.959649 9.68577,-6.35043 17.84832,-9.56127 24.34167,-9.57509 5.4906,-0.0117 9.21028,2.11243 11.18864,6.38927 0.75958,1.64209 0.81392,1.96043 0.79752,4.67256 -0.0253,4.18158 -0.98694,6.82017 -5.15893,14.15521 -7.22207,12.697549 -14.86483,28.084709 -18.52993,37.306249 -2.721,6.84616 -5.15529,15.24479 -4.58415,15.81593 0.0847,0.0847 1.492,-0.51312 3.12723,-1.32859 2.72262,-1.35773 4.82563,-2.69574 14.48253,-9.21432 10.39813,-7.01891 18.38789,-8.29168 23.34824,-3.71939 3.98045,3.66905 4.4314,10.02184 1.34355,18.92728 -0.5092,1.46857 -1.27255,3.46399 -1.69631,4.43427 -0.42376,0.97027 -0.77048,1.89001 -0.77048,2.04386 0,0.69749 7.79469,-2.76677 14.12497,-6.27769 4.64066,-2.5738 5.6366,-2.81385 8.34173,-2.01052 2.94539,0.8747 4.78716,3.49027 4.7829,6.79243 -0.003,1.64441 -0.11586,2.11879 -0.7896,3.29355 -0.92773,1.61759 -1.6365,2.19338 -5.16511,4.19604 -7.51634,4.26591 -14.55488,7.30637 -19.55428,8.44694 -2.52811,0.57676 -7.19381,0.56782 -8.97071,-0.0172 -2.69625,-0.8877 -5.32949,-3.04751 -6.48759,-5.3212 -2.15007,-4.22125 -1.77525,-9.19244 1.23277,-16.34994 1.47169,-3.50185 1.82335,-4.63021 1.44303,-4.63021 -0.25707,0 -3.94755,2.43161 -8.66957,5.71226 -9.29051,6.45464 -17.14624,9.9293 -22.35729,9.88882 -6.45481,-0.0502 -11.13631,-4.39018 -11.96106,-11.08861 -0.82897,-6.73282 2.26625,-18.27191 8.60955,-32.09663 0.48374,-1.05429 1.28042,-2.80985 1.7704,-3.90126 1.83701,-4.09186 9.04608,-18.089999 12.52525,-24.320769 1.98437,-3.55376 3.60795,-6.55368 3.60795,-6.66647 0,-0.36545 -2.79969,0.74571 -5.46751,2.16999 -17.46208,9.32253 -33.85174,25.261659 -48.40409,47.073509 -3.6662,5.49511 -7.4406,11.66327 -9.63323,15.74271 -0.46929,0.87312 -1.14913,2.10662 -1.51077,2.74111 -1.34388,2.35781 -6.14373,12.18383 -7.4741,15.30059 -1.48271,3.47364 -2.42384,4.71224 -4.31273,5.67588 -1.10069,0.56153 -3.62277,0.85676 -4.93984,0.57824 z"
     id="path25" />
  <path
     style="fill:#e6e6e6;stroke-width:0.264583"
     d="m 440.80842,191.17548 c -4.97681,-0.72255 -8.62568,-3.06973 -10.38219,-6.67851 -0.95682,-1.9658 -0.9856,-2.11018 -0.95835,-4.80483 0.0243,-2.39961 0.13745,-3.0731 0.83068,-4.94308 2.4288,-6.55175 8.0145,-10.21666 17.04787,-11.18553 1.41309,-0.15156 5.41579,-0.27556 8.89485,-0.27556 h 6.3256 l 0.13536,-1.00927 c 0.36087,-2.69053 -0.79584,-5.35932 -2.82525,-6.51844 -3.03656,-1.73436 -8.64655,-1.77126 -13.90919,-0.0915 -1.7389,0.55503 -5.21264,2.15165 -5.67532,2.60851 -0.13824,0.13651 -0.38917,0.2482 -0.55761,0.2482 -0.16846,0 -0.99139,-2.09811 -1.82874,-4.66247 -1.23529,-3.78308 -1.4545,-4.70842 -1.16216,-4.9061 1.17877,-0.79709 4.6813,-2.39443 6.84258,-3.12058 9.07153,-3.04788 19.14662,-3.06995 25.37872,-0.0556 3.4979,1.69187 5.92598,4.53595 7.09248,8.30766 0.30911,0.99946 0.42735,2.36856 0.41756,4.83396 -0.0119,2.96489 -0.20357,4.48028 -1.38948,10.98021 -0.75669,4.14735 -1.48061,8.13594 -1.60872,8.86354 -0.12809,0.72761 -0.60167,3.34698 -1.05236,5.82084 -0.45069,2.47385 -0.88847,4.88487 -0.97282,5.35781 l -0.15338,0.8599 h -6.34021 -6.34021 l 0.17738,-1.38907 c 0.0976,-0.76398 0.28668,-1.80578 0.42024,-2.3151 0.42976,-1.6388 0.28736,-1.73784 -0.87868,-0.61108 -1.13104,1.09294 -3.3545,2.58183 -4.82865,3.23342 -2.30275,1.01785 -4.29519,1.38181 -8.06979,1.4741 -2.11005,0.0516 -4.19365,0.0419 -4.63021,-0.0214 z m 11.93035,-9.46706 c 2.93789,-0.78235 5.66733,-2.6769 7.04194,-4.88796 0.56584,-0.91016 1.24249,-3.54438 1.25905,-4.90151 l 0.009,-0.76172 -5.88698,0.1435 c -6.18858,0.15086 -7.79746,0.40368 -9.58011,1.50543 -1.26392,0.78113 -1.90595,1.66088 -2.43351,3.33449 -0.3806,1.20741 -0.39674,1.57724 -0.11046,2.53276 0.40513,1.35218 1.49677,2.42917 3.00276,2.96243 1.41689,0.50171 4.94297,0.53991 6.69803,0.0726 z m 97.87173,9.35519 c -3.72795,-0.56896 -6.85752,-1.70283 -9.46242,-3.42831 -4.10499,-2.71912 -6.3413,-5.79562 -7.63162,-10.49883 -0.80211,-2.92376 -0.61264,-8.59436 0.40958,-12.25743 2.98307,-10.6896 12.5672,-19.18965 23.58927,-20.92104 4.25923,-0.66906 9.29359,-0.3505 12.87322,0.81458 7.65617,2.49192 12.37128,9.18317 12.368,17.5515 0,2.11847 -0.54208,5.96107 -1.11379,7.90733 l -0.29091,0.99031 -17.48734,0.068 -17.48732,0.068 0.0809,0.79375 c 0.294,2.88486 2.33947,5.6411 5.1993,7.00598 2.47227,1.17991 5.90354,1.55856 9.17199,1.01217 3.14727,-0.52615 4.98909,-1.23108 7.50105,-2.87089 l 1.99977,-1.30547 2.8992,3.89995 2.89923,3.89993 -0.9851,0.86783 c -2.94513,2.59461 -6.98828,4.64921 -11.39127,5.78866 -2.11918,0.54846 -3.33057,0.67876 -7.0563,0.75917 -2.47386,0.0534 -5.2123,-0.0119 -6.08542,-0.14523 z m 19.51112,-29.03241 c -0.6009,-5.57928 -5.16094,-8.79338 -11.28162,-7.95173 -3.37387,0.46395 -6.16149,1.92158 -8.33189,4.35673 -1.16742,1.30982 -2.67573,3.88622 -2.67573,4.57053 0,0.19417 3.47114,0.28124 11.2123,0.28124 h 11.21227 z m 86.25406,29.02924 c -2.65729,-0.33486 -7.14444,-1.46754 -9.31826,-2.35218 -2.26216,-0.92059 -4.23963,-2.06518 -4.23963,-2.45393 0,-0.16208 0.93541,-1.73463 2.07868,-3.49459 1.14326,-1.75993 2.51388,-3.88099 3.04583,-4.71344 l 0.96718,-1.51354 1.23738,0.78474 c 1.50616,0.95517 5.32759,2.42247 8.01677,3.07816 1.52183,0.37108 2.97113,0.47993 6.2177,0.46705 3.72767,-0.0148 4.41315,-0.0873 5.73874,-0.60675 2.49629,-0.97819 3.86059,-3.07129 3.0776,-4.72159 -0.62275,-1.31258 -1.70304,-1.64938 -10.00696,-3.1198 -3.893,-0.68935 -7.64117,-1.68641 -9.1893,-2.44446 -1.74125,-0.8526 -3.79145,-2.78396 -4.59406,-4.32774 -0.47094,-0.90583 -0.62953,-1.72399 -0.71557,-3.69124 -0.19108,-4.37025 1.09519,-7.85043 4.10181,-11.09784 2.012,-2.17316 3.92406,-3.48311 7.05406,-4.83273 3.0726,-1.32489 5.72836,-1.93771 10.10922,-2.33273 4.97113,-0.44823 10.47964,0.16482 15.54586,1.73014 1.07143,0.33104 4.3103,1.82628 4.64286,2.1434 0.0548,0.0523 -0.78788,1.43925 -1.87265,3.08218 -1.08476,1.64292 -2.47975,3.7908 -3.09993,4.77307 -0.62021,0.98226 -1.18362,1.78593 -1.25199,1.78593 -0.0684,0 -1.09952,-0.45839 -2.29139,-1.01865 -1.19187,-0.56025 -2.88142,-1.21025 -3.75455,-1.44443 -3.77187,-1.01165 -9.33971,-1.03475 -12.30143,-0.051 -3.76682,1.25113 -4.95961,4.93019 -2.02001,6.23051 0.63735,0.28194 3.58463,0.99291 6.54952,1.57994 9.89084,1.95835 11.97859,2.732 14.38415,5.3303 1.53776,1.66097 1.93559,2.60272 2.16829,5.13272 0.46953,5.10538 -2.35934,10.6162 -7.05059,13.73493 -2.56736,1.7068 -4.95237,2.72896 -8.4768,3.63299 -2.71611,0.6967 -3.56812,0.79079 -7.9375,0.87654 -2.69214,0.0528 -5.7589,-0.0127 -6.81503,-0.14594 z m 50.73586,-0.10944 c -5.72167,-1.23004 -10.04496,-4.29146 -12.35014,-8.74532 -1.83158,-3.53883 -2.06513,-4.65378 -2.05055,-9.78959 0.0114,-4.03261 0.0857,-4.76192 0.71739,-7.04992 1.70381,-6.17092 3.97521,-10.13255 8.10028,-14.128 2.29568,-2.22357 4.28961,-3.59623 7.30281,-5.02741 5.70998,-2.71207 12.50683,-3.40552 17.84406,-1.82054 1.84025,0.5465 3.85926,1.75947 5.35778,3.21884 1.21203,1.18037 1.24495,1.19392 1.39002,0.57259 0.0817,-0.35001 0.56327,-2.95811 1.07008,-5.79576 1.96355,-10.99404 2.54741,-14.18361 2.73651,-14.94896 l 0.19608,-0.79375 6.58688,-0.0709 c 3.62275,-0.039 6.66872,0.0206 6.76876,0.1323 0.10006,0.11174 -0.15905,2.04863 -0.57576,4.3042 -0.41672,2.25558 -1.12284,6.12511 -1.56914,8.59896 -0.44628,2.47386 -0.92178,5.0337 -1.05667,5.68854 -0.13491,0.65485 -0.47834,2.55985 -0.76322,4.23334 -0.28487,1.67349 -0.63799,3.63802 -0.7847,4.36562 -0.14671,0.72761 -0.93511,5.07339 -1.75204,9.65729 -0.81693,4.58391 -1.82372,10.17985 -2.23737,12.43542 -0.41362,2.25557 -1.06828,5.88698 -1.45481,8.06979 -0.38653,2.18281 -0.82243,4.59383 -0.96869,5.35781 l -0.26591,1.38907 h -6.47975 -6.47973 l 0.17182,-1.25677 c 0.0945,-0.69123 0.27975,-1.67349 0.41162,-2.18282 0.4147,-1.6016 0.28156,-1.6483 -1.27863,-0.44844 -1.96281,1.50947 -4.81415,2.93759 -7.25726,3.63482 -2.53986,0.72483 -8.79117,0.9453 -11.32972,0.39957 z m 11.94094,-11.11078 c 6.88289,-1.45888 11.62973,-8.15879 11.29292,-15.93928 -0.13208,-3.05066 -0.65281,-4.44941 -2.33654,-6.27604 -1.60269,-1.73869 -3.55383,-2.58211 -6.34029,-2.74073 -4.30593,-0.2451 -7.38439,0.93488 -10.4853,4.01903 -1.92059,1.91023 -3.01186,3.70043 -3.96312,6.50144 -0.38097,1.12173 -0.49551,2.24341 -0.49985,4.89479 -0.005,3.24624 0.0352,3.51711 0.72147,4.81888 1.03806,1.96915 2.14786,3.12992 3.73475,3.90631 2.42337,1.18565 4.91355,1.44354 7.87596,0.8156 z m 49.83927,11.19815 c -3.40606,-0.49543 -7.64773,-2.28264 -10.21186,-4.30271 -4.94959,-3.89943 -7.48647,-10.49715 -6.60387,-17.17501 0.70948,-5.3681 1.94564,-8.76224 4.7312,-12.99049 1.39568,-2.11851 4.57055,-5.43482 6.66057,-6.95729 7.99317,-5.82259 19.1122,-7.64675 27.82652,-4.56514 3.06782,1.08486 4.8174,2.20106 7.23244,4.6142 2.36611,2.36424 3.96507,5.18418 4.73532,8.35128 0.89252,3.6698 0.42305,9.55627 -1.11712,14.00719 -3.40635,9.84397 -13.06801,17.51257 -23.9754,19.02966 -2.36104,0.32838 -6.97976,0.32256 -9.2778,-0.0116 z m 11.12636,-11.61558 c 2.11683,-0.72829 3.79643,-1.86595 5.59718,-3.7911 2.74968,-2.93964 4.12038,-6.63985 4.13155,-11.1531 0.0109,-4.33928 -1.32514,-6.82609 -4.62926,-8.61752 -1.64184,-0.89018 -1.73426,-0.90748 -4.84875,-0.90748 -3.66236,0 -4.73742,0.30773 -7.59568,2.1742 -2.29016,1.49548 -3.68494,3.10219 -4.99084,5.74908 -1.85401,3.75789 -2.30748,8.44715 -1.12472,11.63035 0.9684,2.60625 3.82392,4.94113 6.68168,5.46344 1.7597,0.32163 5.01672,0.0584 6.77884,-0.54787 z m 42.6521,11.65479 c -5.09995,-0.92874 -8.51887,-3.51914 -9.91134,-7.50943 -0.6459,-1.85089 -0.65236,-7.31974 -0.0127,-10.62289 0.40698,-2.10109 1.04719,-5.58241 2.45713,-13.36146 0.22418,-1.23692 0.47202,-2.57638 0.55076,-2.97656 l 0.14314,-0.7276 h -3.44498 c -1.89476,0 -3.50168,-0.0917 -3.57093,-0.20377 -0.0693,-0.11207 0.0353,-1.03481 0.23231,-2.05052 0.19703,-1.01571 0.62039,-3.30527 0.9408,-5.0879 l 0.58256,-3.24115 h 3.51732 c 3.11875,0 3.53356,-0.0525 3.6608,-0.46302 0.13057,-0.42123 2.00883,-10.5139 2.00883,-10.79423 0,-0.0659 3.03609,-0.11983 6.74687,-0.11983 6.3182,0 6.74687,0.0302 6.74687,0.47579 0,0.26169 -0.41671,2.71805 -0.92604,5.45858 -0.50932,2.74053 -0.92604,5.08626 -0.92604,5.21275 0,0.12648 2.57032,0.22996 5.7118,0.22996 h 5.7118 l -0.17524,1.12448 c -0.20637,1.32433 -1.41398,8.002 -1.60289,8.86354 -0.1305,0.59512 -0.13248,0.59532 -5.88508,0.59532 h -5.7545 l -0.47771,2.71198 c -0.26273,1.49158 -0.75887,4.25979 -1.10254,6.15156 -1.83891,10.12221 -2.017,11.31222 -1.84526,12.32885 0.21349,1.26364 1.24182,2.55975 2.42221,3.05296 1.68566,0.7043 5.43084,0.23861 7.15235,-0.88937 0.34324,-0.22489 0.70257,-0.33041 0.79851,-0.23447 0.17934,0.17931 1.89817,8.42227 1.91585,9.18766 0.0119,0.5171 -2.49219,1.69426 -5.14951,2.42072 -2.09452,0.57261 -8.39988,0.85326 -10.51528,0.46805 z m 142.13507,-0.12885 c -6.1014,-1.00145 -11.12266,-3.94401 -13.95416,-8.17745 -1.64729,-2.46288 -2.36997,-4.33904 -2.91097,-7.55709 -0.74017,-4.40286 0.25302,-10.17852 2.57408,-14.96893 6.11132,-12.61306 20.70851,-19.3794 33.88064,-15.70492 6.43376,1.79475 10.97724,6.42076 12.56048,12.78866 0.70191,2.82309 0.64574,7.79376 -0.12658,11.20007 l -0.61137,2.6964 h -17.52774 -17.52778 l 0.12946,1.12448 c 0.19484,1.69272 1.53734,4.27504 2.77186,5.33172 1.5798,1.35226 3.22196,2.03338 6.01178,2.49352 5.0206,0.82809 9.80406,-0.42614 14.47316,-3.79485 0.52877,-0.38152 0.65968,-0.24904 3.37344,3.41358 1.55281,2.09579 2.82114,3.91253 2.81852,4.03717 -0.0116,0.55409 -3.50594,3.03202 -6.23919,4.42447 -2.30018,1.17181 -3.44517,1.58287 -6.40564,2.29973 -3.01355,0.72972 -9.98389,0.93607 -13.28999,0.39344 z M 984.854,161.76662 c -0.3909,-4.1431 -3.37243,-7.11964 -7.72978,-7.71677 -5.88565,-0.80657 -11.81338,2.57167 -14.17346,8.07752 l -0.4975,1.1606 h 11.27212 11.27215 z m -635.88652,28.40405 c 0.16063,-0.64008 0.81743,-4.23042 3.46562,-18.9452 0.79877,-4.43839 1.81152,-10.03432 2.25059,-12.43542 0.43905,-2.40109 1.45262,-7.99703 2.25235,-12.43541 1.84243,-10.22525 2.24877,-12.45536 2.62744,-14.4198 l 0.30599,-1.5875 5.81327,-0.071 5.81327,-0.071 1.408,3.37833 c 4.09612,9.82817 14.16037,33.56618 14.29912,33.72665 0.0884,0.10221 2.38487,-2.69576 5.10333,-6.2177 6.71825,-8.70396 13.42771,-17.37809 19.13321,-24.7358 l 4.7625,-6.14164 5.75469,-3e-5 c 3.16508,-1e-5 5.75461,0.0893 5.7545,0.19842 -1e-4,0.10914 -0.36274,2.2225 -0.80592,4.69635 -0.44315,2.47386 -0.91032,5.09323 -1.03817,5.82084 -0.12782,0.7276 -0.48683,2.75166 -0.79777,4.49791 -0.31094,1.74625 -0.78629,4.42516 -1.05638,5.95313 -0.27006,1.52797 -0.74641,4.20687 -1.05857,5.95312 -0.31215,1.74625 -0.74718,4.18704 -0.96676,5.42396 -0.21955,1.23693 -0.5053,2.84427 -0.63495,3.57188 -0.12964,0.7276 -0.53078,2.98979 -0.89141,5.02708 -1.41332,7.98441 -1.81295,10.22075 -2.62411,14.68438 l -0.8414,4.6302 -6.54843,0.0708 c -6.41776,0.0693 -6.54844,0.0601 -6.54844,-0.46389 0,-0.29403 0.42111,-2.88573 0.9358,-5.75929 0.5147,-2.87359 1.11702,-6.23671 1.33848,-7.47364 0.22148,-1.23692 0.69786,-3.91583 1.05865,-5.95312 1.0546,-5.95525 1.09794,-6.1989 1.69415,-9.525 0.70469,-3.93135 1.05482,-6.01925 1.0568,-6.30248 0,-0.11938 -3.58844,4.40499 -7.97618,10.05417 -4.38772,5.64917 -9.53228,12.26899 -11.4323,14.71069 l -3.45462,4.43947 -3.16256,-0.0738 -3.16256,-0.0738 -0.77798,-1.85208 c -2.43991,-5.80861 -10.88253,-25.49845 -11.16251,-26.03318 -0.36891,-0.70461 -0.26236,-1.20657 -3.16711,14.92068 -2.98969,16.59872 -3.38979,18.77182 -3.51748,19.10458 -0.10261,0.26737 -1.5793,0.3423 -6.74632,0.3423 h -6.61495 z m 144.91575,-4.06239 c -0.62246,-2.58299 -1.89878,-7.91104 -2.83626,-11.8401 -2.24496,-9.4089 -4.26862,-17.885 -5.75241,-24.09368 -0.66294,-2.77402 -1.2832,-5.24654 -1.37834,-5.49448 -0.16071,-0.41884 0.33012,-0.4458 6.9212,-0.38028 l 7.09422,0.0705 1.66204,7.27604 c 0.91411,4.00183 1.83626,8.04995 2.04925,8.99584 0.21296,0.94588 0.93678,4.16057 1.60845,7.14375 1.72302,7.65266 1.69389,7.55348 2.08939,7.11423 0.18193,-0.20204 4.41886,-7.18369 9.41538,-15.51475 l 9.08463,-15.1474 h 6.60225 6.60228 l -0.38234,0.59531 c -0.37492,0.58371 -4.76499,7.85999 -19.5951,32.47761 -4.07638,6.76671 -7.57581,12.57101 -7.77653,12.89843 -0.36351,0.59301 -0.39179,0.59532 -7.32062,0.59532 h -6.95571 z m 93.10902,4.36563 c 0.003,-0.5215 0.46233,-3.17773 2.21046,-12.76615 0.50408,-2.76489 1.58985,-8.77755 2.41279,-13.36146 0.82293,-4.5839 1.83509,-10.17984 2.24919,-12.43541 0.41413,-2.25558 0.89585,-4.90472 1.07048,-5.88698 l 0.31755,-1.78594 h 6.45232 c 5.974,0 6.45131,0.0343 6.43842,0.46302 -0.008,0.25466 -0.17449,1.35599 -0.37073,2.4474 -0.19625,1.0914 -0.32401,2.01903 -0.2839,2.06139 0.0401,0.0424 0.41531,-0.19576 0.83375,-0.52916 3.30296,-2.63162 7.00067,-4.15601 11.78206,-4.85721 6.65128,-0.97541 12.31135,0.57407 15.92109,4.35851 3.75256,3.93417 4.48786,9.33612 2.6144,19.20709 -0.44191,2.32833 -1.1748,6.31693 -1.62867,8.86354 -0.45389,2.54662 -0.93245,5.16599 -1.06349,5.82084 -0.13103,0.65484 -0.43289,2.32171 -0.6708,3.70416 -0.23792,1.38245 -0.55547,3.07909 -0.7057,3.77032 l -0.27313,1.25677 h -6.72047 c -5.19879,0 -6.72102,-0.0749 -6.72277,-0.33073 0,-0.1819 0.35653,-2.29526 0.79505,-4.69636 3.5969,-19.69348 3.73319,-20.53321 3.72433,-22.94888 -0.0172,-4.68292 -1.91778,-6.92251 -6.25962,-7.37614 -6.59458,-0.68898 -12.24833,3.49003 -14.00101,10.34898 -0.33689,1.3184 -1.45547,7.19102 -2.51979,13.22917 -0.57168,3.24323 -1.83115,10.13277 -1.99519,10.91406 l -0.18055,0.8599 h -6.71381 c -5.19546,0 -6.71345,-0.0748 -6.71226,-0.33073 z m 258.59051,-0.79375 c 0.0913,-0.61847 0.33951,-2.07698 0.55147,-3.24115 0.21198,-1.16417 0.79849,-4.37885 1.30336,-7.14375 0.50486,-2.76489 1.46722,-8.12271 2.13855,-11.90625 0.67133,-3.78354 1.33146,-7.41495 1.46698,-8.06979 0.13552,-0.65484 1.27051,-6.90563 2.52217,-13.89063 1.25164,-6.985 2.53606,-14.06921 2.85422,-15.7427 l 0.57848,-3.04271 6.4773,-0.071 c 3.5625,-0.039 6.61569,-0.0179 6.78484,0.047 0.32721,0.12556 0.36258,-0.1225 -1.22971,8.62292 -1.51286,8.30916 -2.66874,14.6934 -3.04191,16.80104 -0.52893,2.98748 -0.54285,3.06483 -1.71439,9.525 -0.58058,3.20146 -1.24442,6.89239 -1.47519,8.20208 -0.23077,1.30969 -0.58404,3.21469 -0.78504,4.23333 -0.20101,1.01865 -0.84969,4.59053 -1.44153,7.9375 -0.59182,3.34698 -1.20013,6.7105 -1.35179,7.47448 l -0.27572,1.38907 h -6.76407 -6.76407 z m 25.83989,0.66146 c 0.005,-0.50777 0.17601,-1.49244 1.98311,-11.44323 0.67389,-3.71078 1.32808,-7.34219 1.4537,-8.0698 0.20923,-1.21166 0.64011,-3.58212 2.88549,-15.875 0.42527,-2.32833 1.03765,-5.69184 1.36081,-7.47447 l 0.58758,-3.24115 h 6.81765 c 6.3568,0 6.81054,0.0313 6.71219,0.46302 -0.058,0.25466 -0.53014,2.84427 -1.0492,5.75469 -0.51904,2.91041 -1.11699,6.24416 -1.32879,7.40833 -0.2118,1.16417 -0.56312,3.1287 -0.78071,4.36563 -0.21759,1.23692 -0.57158,3.20145 -0.78663,4.36562 -1.42084,7.6916 -2.07566,11.2908 -3.03268,16.66875 -0.59558,3.34698 -1.14877,6.41284 -1.22928,6.81302 l -0.1464,0.72761 h -6.72586 c -6.23105,0 -6.72547,-0.0341 -6.72098,-0.46302 z m 38.25957,0 c -0.0747,-0.25467 -0.62486,-2.54662 -1.22258,-5.09323 -0.59772,-2.54662 -1.42992,-6.05896 -1.84936,-7.80521 -0.41942,-1.74625 -1.01706,-4.24656 -1.32813,-5.55625 -0.31104,-1.30969 -0.96586,-4.04813 -1.45513,-6.08542 -0.48927,-2.03729 -1.14411,-4.77573 -1.45521,-6.08542 -0.31109,-1.30968 -0.96594,-4.04812 -1.45521,-6.08541 -0.48926,-2.03729 -1.14143,-4.77573 -1.44928,-6.08542 -0.30781,-1.30969 -0.62119,-2.58961 -0.69638,-2.84427 -0.12779,-0.43279 0.32269,-0.46302 6.90086,-0.46302 5.40311,0 7.05961,0.0768 7.1324,0.33073 0.0522,0.1819 1.12575,4.91463 2.38578,10.51719 1.25999,5.60255 2.45678,10.90083 2.65948,11.77395 0.20272,0.87313 0.70297,3.10524 1.11167,4.96024 0.40871,1.85501 0.83199,3.34329 0.9406,3.30729 0.10861,-0.036 4.35115,-6.97107 9.42787,-15.41128 l 9.23039,-15.34583 6.54338,-0.0708 c 5.19803,-0.0563 6.51658,-0.002 6.41305,0.26458 -0.0717,0.18448 -4.33104,7.30057 -9.46528,15.81354 -5.13424,8.51297 -11.35484,18.84164 -13.82356,22.95261 l -4.4886,7.47448 h -6.96047 c -6.40091,0 -6.9714,-0.0372 -7.09629,-0.46302 z"
     id="path33" />
</svg>
