<?xml version="1.0" encoding="UTF-8" standalone="no"?>
<!-- Created with Inkscape (http://www.inkscape.org/) -->

<svg
   width="223.29572mm"
   height="116.96093mm"
   viewBox="0 0 223.29571 116.96093"
   version="1.1"
   id="svg5"
   inkscape:version="1.1.2 (0a00cf5339, 2022-02-04, custom)"
   sodipodi:docname="blanchard.svg"
   xmlns:inkscape="http://www.inkscape.org/namespaces/inkscape"
   xmlns:sodipodi="http://sodipodi.sourceforge.net/DTD/sodipodi-0.dtd"
   xmlns="http://www.w3.org/2000/svg"
   xmlns:svg="http://www.w3.org/2000/svg">
  <sodipodi:namedview
     id="namedview7"
     pagecolor="#ffffff"
     bordercolor="#666666"
     borderopacity="1.0"
     inkscape:pageshadow="2"
     inkscape:pageopacity="0.0"
     inkscape:pagecheckerboard="0"
     inkscape:document-units="mm"
     showgrid="false"
     fit-margin-top="0"
     fit-margin-left="0"
     fit-margin-right="0"
     fit-margin-bottom="0"
     inkscape:zoom="0.66646401"
     inkscape:cx="507.9044"
     inkscape:cy="232.5707"
     inkscape:window-width="1366"
     inkscape:window-height="715"
     inkscape:window-x="-8"
     inkscape:window-y="-8"
     inkscape:window-maximized="1"
     inkscape:current-layer="layer1" />
  <defs
     id="defs2" />
  <g
     inkscape:label="Layer 1"
     inkscape:groupmode="layer"
     id="layer1"
     transform="translate(147.79387,-37.692256)">
    <g
       id="g8815"
       transform="translate(-12.225749,-181.80451)"
       style="fill:#231f20;fill-opacity:1">
      <path
         style="fill:#231f20;fill-opacity:1;stroke-width:0.0846667"
         d="m -87.265738,252.43408 c -1.028566,-0.18552 -1.734984,-0.42002 -2.644591,-0.87787 -1.435491,-0.72255 -2.422501,-1.68756 -3.074974,-3.00643 -0.524095,-1.05937 -0.694038,-1.82882 -0.701245,-3.175 -0.0065,-1.2114 0.08677,-1.73347 0.486332,-2.72269 0.648847,-1.60639 2.122429,-3.10706 3.994374,-4.06781 2.14456,-1.10067 5.634083,-1.83524 10.59727,-2.23079 l 0.6985,-0.0557 v -0.52373 c 0,-0.6808 -0.204571,-1.45219 -0.481354,-1.81507 -0.123664,-0.16213 -0.428319,-0.386 -0.694923,-0.51066 -0.435509,-0.20362 -0.56564,-0.22201 -1.575389,-0.2226 -1.299838,-7.6e-4 -1.979448,0.18352 -2.659655,0.72119 -0.420849,0.33266 -0.937274,1.18782 -0.939975,1.55652 -0.0029,0.39381 0.07718,0.39425 -4.377751,-0.0241 -2.337751,-0.21954 -4.27628,-0.425 -4.307842,-0.45656 -0.09647,-0.0965 0.214927,-1.07646 0.607584,-1.91209 1.276239,-2.71604 3.643326,-4.41432 7.263657,-5.21136 1.662929,-0.36611 2.411999,-0.43194 4.837315,-0.42512 2.499856,0.007 3.823597,0.15 5.460251,0.58968 2.900875,0.77931 4.851789,2.34655 5.592159,4.49239 0.421345,1.22119 0.436237,1.52425 0.455118,9.2625 0.0192,7.86965 0.02713,8.01798 0.509213,9.52769 0.118487,0.37105 0.215916,0.70355 0.216511,0.73888 5.92e-4,0.0353 -2.045932,0.0544 -4.547837,0.0423 l -4.548919,-0.0219 -0.101937,-0.59267 c -0.05607,-0.32596 -0.129509,-1.04372 -0.16321,-1.59502 l -0.06127,-1.00236 -0.211194,0.28269 c -0.468516,0.62713 -1.698995,1.73628 -2.368754,2.13518 -0.842228,0.50162 -2.069479,0.93291 -3.151128,1.10741 -1.013617,0.16352 -3.181633,0.15986 -4.106333,-0.007 z m 7.179563,-5.79017 c 0.682514,-0.21081 1.313403,-0.74819 1.618928,-1.37897 0.377617,-0.77963 0.484583,-1.36404 0.533903,-2.91699 l 0.04639,-1.4605 -0.24439,8e-5 c -0.831238,4.3e-4 -2.698877,0.47843 -3.638217,0.93122 -1.329918,0.64106 -1.972256,1.476 -2.048408,2.66261 -0.07559,1.17786 0.40751,1.94654 1.415625,2.25244 0.45133,0.13695 1.744139,0.0868 2.316174,-0.0899 z m 49.589435,5.8402 c -2.794618,-0.38293 -5.044685,-1.51682 -6.881088,-3.46762 -1.845209,-1.96015 -2.964722,-4.4563 -3.274128,-7.30021 -0.363533,-3.34136 0.395393,-6.62335 2.124575,-9.1878 0.592548,-0.87877 1.859407,-2.17107 2.765044,-2.82057 0.830215,-0.59541 2.271979,-1.32109 3.261952,-1.64184 1.378162,-0.44653 2.411518,-0.59227 4.204978,-0.59306 2.329163,-10e-4 3.813734,0.30222 5.566224,1.13702 1.181574,0.56285 2.038189,1.16684 2.942776,2.07495 1.204409,1.20909 2.058907,2.66253 2.538679,4.31813 0.221937,0.76586 0.443679,1.95794 0.376191,2.0224 -0.06496,0.062 -8.223402,0.74063 -8.2757,0.68833 -0.02797,-0.028 -0.137203,-0.43591 -0.242748,-0.90654 -0.438768,-1.9564 -1.177722,-2.77802 -2.507725,-2.78823 -1.015839,-0.008 -1.669424,0.31969 -2.153251,1.07892 -0.584556,0.91728 -0.780127,1.89778 -0.844559,4.23418 -0.128608,4.66368 0.754583,6.55061 3.066068,6.55061 1.120851,0 1.855436,-0.49891 2.409105,-1.63619 0.185327,-0.38068 0.38321,-0.93979 0.439742,-1.24248 0.05653,-0.30268 0.12849,-0.58109 0.159901,-0.61867 0.04944,-0.0592 7.116945,0.46359 7.83894,0.5798 l 0.264642,0.0426 -0.117881,0.6543 c -0.162585,0.90248 -0.576995,2.21469 -0.957538,3.03202 -0.472516,1.01485 -1.12279,1.93058 -1.986347,2.79721 -1.448528,1.45368 -3.131998,2.32813 -5.458723,2.83541 -0.663676,0.1447 -1.174005,0.18261 -2.761462,0.20512 -1.071034,0.0152 -2.194983,-0.006 -2.497667,-0.0478 z m 47.201665,-0.0448 c -2.59897,-0.48865 -4.545075,-1.76363 -5.613755,-3.67781 -1.0926233,-1.95706 -1.0922846,-4.82139 8.47e-4,-6.77334 0.76719,-1.37 2.146173,-2.64693 3.702194,-3.4282 2.135682,-1.07232 5.722856,-1.82087 10.578964,-2.20754 l 0.709523,-0.0565 -0.04282,-0.77338 c -0.05196,-0.93823 -0.226162,-1.40133 -0.670069,-1.7813 -0.463084,-0.39638 -0.954447,-0.51646 -2.103154,-0.51396 -1.975425,0.004 -3.042852,0.64575 -3.48322,2.09316 l -0.173804,0.57128 -0.436321,-0.0486 c -0.239979,-0.0267 -2.158941,-0.20938 -4.264372,-0.40589 -2.105431,-0.1965 -3.855991,-0.38522 -3.890129,-0.41936 -0.03415,-0.0341 0.04555,-0.39432 0.177106,-0.80039 0.471077,-1.45412 1.126685,-2.51896 2.178863,-3.53894 2.152286,-2.08641 5.055582,-3.07945 9.426211,-3.22412 6.052565,-0.20033 10.228723,1.37688 11.683051,4.41233 0.76393,1.59445 0.803647,2.11032 0.804553,10.44921 8.47e-4,7.18734 0.02587,7.67015 0.470942,9.06353 0.112725,0.35292 0.205443,0.67025 0.206036,0.70517 8.47e-4,0.0349 -2.034701,0.0635 -4.522876,0.0635 -4.23501,0 -4.526822,-0.009 -4.568791,-0.14816 -0.09873,-0.32633 -0.222098,-1.29804 -0.275624,-2.17101 l -0.05654,-0.92218 -0.173635,0.24485 c -0.400075,0.56414 -1.415161,1.5217 -2.097989,1.97909 -0.79099,0.52983 -1.701817,0.91847 -2.804177,1.1965 -0.943034,0.23785 -3.741564,0.30372 -4.76095,0.11206 z m 7.430262,-5.86431 c 0.580551,-0.25762 1.186129,-0.85967 1.445049,-1.43661 0.310193,-0.69121 0.480356,-1.79609 0.480356,-3.11898 v -1.13191 l -0.232833,8e-5 c -0.824849,4.3e-4 -2.694221,0.48174 -3.638076,0.93674 -1.253854,0.60444 -1.953514,1.50513 -2.034574,2.61915 -0.08225,1.13052 0.362619,1.90264 1.296043,2.24943 0.51137,0.18999 2.152642,0.11787 2.684035,-0.11793 z m 37.358404,5.93579 c -1.740281,-0.24211 -3.52353,-1.17874 -4.735618,-2.48735 -2.6125,-2.82053 -3.755509,-8.1713 -2.873976,-13.45394 0.753194,-4.51352 2.927002,-7.55189 6.173148,-8.62829 3.079419,-1.02112 6.34514,-0.45287 8.492422,1.47772 l 0.437024,0.39293 v -5.08785 -5.08785 h 4.741333 4.741333 v 16.256 16.256 h -4.487333 -4.487333 l -8.47e-4,-1.62983 -8.47e-4,-1.62983 -0.352704,0.59266 c -0.43368,0.72873 -1.555522,1.86604 -2.200292,2.23062 -1.108575,0.62685 -2.218436,0.86474 -3.951698,0.84703 -0.682761,-0.007 -1.355683,-0.0286 -1.495383,-0.048 z m 5.642322,-6.38755 c 0.672033,-0.20135 1.36619,-0.99821 1.679355,-1.92784 0.173736,-0.51572 0.177986,-0.64665 0.15383,-4.73431 -0.0247,-4.18168 -0.02587,-4.20617 -0.219523,-4.62726 -0.430954,-0.93714 -1.222435,-1.42863 -2.302984,-1.43011 -0.728845,-0.001 -1.305264,0.20975 -1.749561,0.63968 -0.565471,0.54716 -0.914705,1.73372 -1.179593,4.00776 -0.189306,1.62518 -0.126238,4.43269 0.121726,5.41867 0.387697,1.54158 1.008583,2.37712 1.972572,2.65452 0.400863,0.11535 1.137234,0.11482 1.524178,-0.001 z M -135.56807,235.89727 v -16.26116 h 8.66936 c 5.46741,0 8.9932,0.033 9.54617,0.0893 2.92486,0.29782 4.88039,1.29218 6.33337,3.22043 1.26763,1.68228 1.87013,3.62372 1.75604,5.65859 -0.081,1.44492 -0.42699,2.50155 -1.2104,3.69661 -0.84466,1.28851 -2.07559,2.24059 -3.52766,2.72854 l -0.71953,0.24179 0.59049,0.14172 c 2.36331,0.5672 4.28097,2.20539 5.18448,4.42894 0.83146,2.04625 0.58603,5.38833 -0.56485,7.69177 -1.09768,2.19694 -2.80152,3.5043 -5.35848,4.11157 -1.86485,0.4429 -1.89442,0.44413 -11.61849,0.47978 l -9.0805,0.0333 z m 15.76053,8.61832 c 0.5839,-0.27376 1.0897,-0.765 1.40072,-1.36042 0.20097,-0.38475 0.23398,-0.54815 0.23572,-1.16706 0.002,-0.60227 -0.0342,-0.79681 -0.21978,-1.19265 -0.45136,-0.96248 -1.32213,-1.52323 -2.6123,-1.68225 -0.3946,-0.0486 -1.77572,-0.0884 -3.06917,-0.0884 h -2.35172 v 2.88261 2.88261 l 3.06917,-0.0251 3.06916,-0.0251 z m -0.64383,-12.62832 c 1.18992,-0.39014 1.93714,-1.83801 1.65355,-3.20405 -0.12672,-0.61041 -0.43291,-1.07555 -0.92519,-1.40547 -0.76713,-0.51411 -1.04649,-0.55545 -4.01289,-0.59385 l -2.68817,-0.0348 v 2.72352 2.72351 l 2.77283,-0.0344 c 2.28326,-0.0284 2.84823,-0.0591 3.19987,-0.17444 z m 14.93997,4.00484 v -16.256 h 4.74133 4.741332 v 16.256 16.256 h -4.741332 -4.74133 z m 39.285328,4.14867 v -12.10733 h 4.445 4.445 l 0.0039,1.67216 0.0039,1.67217 0.218337,-0.41986 c 0.733045,-1.40962 2.170355,-2.55076 3.837778,-3.04697 1.682843,-0.5008 4.004124,-0.49767 5.748901,0.008 2.759379,0.79935 4.119304,2.34482 4.720065,5.36406 0.127846,0.64251 0.146608,1.69772 0.174997,9.8425 l 0.03179,9.12283 h -4.702877 -4.702878 l -0.0015,-7.5565 c -8.47e-4,-4.36385 -0.03675,-7.89146 -0.08497,-8.34931 -0.08286,-0.78668 -0.293244,-1.42262 -0.572959,-1.73194 -0.07971,-0.0881 -0.294615,-0.23666 -0.477559,-0.33003 -0.455281,-0.23236 -1.69699,-0.18674 -2.21315,0.0813 -0.763258,0.39638 -1.211642,1.18218 -1.384756,2.42682 -0.05939,0.42691 -0.09114,3.23463 -0.09114,8.05745 v 7.4022 h -4.699 -4.699 z m 50.884665,-4.14867 v -16.256 h 4.741333 4.7413335 v 5.47602 5.47602 l 0.6984999,-0.67497 c 0.8602811,-0.83131 1.3397569,-1.1793 2.2594485,-1.63982 1.8411105,-0.92192 4.4604092,-1.09955 6.6893015,-0.45365 2.1107907,0.61169 3.4569229,1.9034 4.1504784,3.98271 0.5406305,1.62081 0.5360077,1.52901 0.573659,11.39219 l 0.034188,8.9535 H 3.7993806 -0.94807402 v -7.91216 c 0,-5.52358 -0.0286681,-8.04762 -0.0949621,-8.36084 -0.1684867,-0.79604 -0.4610947,-1.22377 -1.0480379,-1.53198 -0.498602,-0.26183 -1.5344309,-0.25478 -2.1347683,0.0145 -0.523494,0.23483 -1.146048,0.86861 -1.4060508,1.43141 l -0.1845141,0.3994 -0.022843,7.97983 -0.022851,7.97983 h -4.7396478 -4.739657 z m 53.001332,4.14867 v -12.10733 h 4.021666 4.021667 l 0.0027,2.4765 0.0027,2.4765 0.35786,-1.05834 c 0.671381,-1.98555 1.602664,-3.21307 2.964891,-3.90803 0.845803,-0.43149 2.214948,-0.58962 3.804971,-0.43945 l 0.5715,0.054 v 4.2726 4.2726 l -0.204868,-0.0514 c -0.602649,-0.15126 -1.605322,-0.23048 -2.246046,-0.17747 -2.110917,0.17467 -3.08284,0.90395 -3.618805,2.71538 -0.1344,0.45426 -0.150699,1.10875 -0.175328,7.04131 l -0.02715,6.5405 h -4.737904 -4.737896 v -12.10733 z m 45.431649,-12.87416 c -1.095967,-0.18358 -2.217674,-1.07608 -2.747916,-2.18641 -0.2995,-0.62716 -0.308025,-0.67217 -0.306578,-1.61876 0.0013,-0.82105 0.03254,-1.05122 0.199551,-1.46843 0.367115,-0.91708 1.268942,-1.81098 2.211959,-2.19252 0.386563,-0.1564 0.631063,-0.18866 1.439333,-0.1899 0.921394,-0.001 1.004393,0.0131 1.545887,0.26957 0.614891,0.29127 1.39551,0.96524 1.732093,1.49545 0.673735,1.06132 0.749233,2.60691 0.183896,3.76456 -0.773768,1.58448 -2.461691,2.42738 -4.258225,2.12644 z m 1.966189,-0.77724 c 0.641443,-0.23607 1.443549,-1.00747 1.759906,-1.69252 0.219702,-0.47575 0.244983,-0.61929 0.242621,-1.37775 -0.0023,-0.74341 -0.03041,-0.90384 -0.230462,-1.31549 -1.246666,-2.56537 -4.721682,-2.57347 -5.932382,-0.0138 -0.241545,0.51067 -0.267818,0.64342 -0.263051,1.32932 0.0069,0.99818 0.220515,1.5593 0.853838,2.24337 0.930097,1.00462 2.253615,1.31122 3.56953,0.8269 z m -2.778506,-3.07949 v -2.16823 l 1.248833,0.0309 c 1.116999,0.0277 1.281303,0.0511 1.556368,0.22165 0.359774,0.22311 0.525577,0.56779 0.517881,1.07662 -0.0067,0.44141 -0.1947,0.75209 -0.542299,0.89607 l -0.258961,0.10727 0.208627,0.10931 c 0.359012,0.18811 0.515544,0.52941 0.567995,1.23845 l 0.04854,0.65616 h -0.393937 -0.393937 l -0.03354,-0.59356 c -0.04634,-0.81999 -0.228626,-1.00274 -1.07061,-1.07333 l -0.608297,-0.051 v 0.85895 0.85894 h -0.42333 -0.423333 z m 2.195279,-0.24165 c 0.260494,-0.1347 0.344721,-0.28333 0.344721,-0.60828 0,-0.49547 -0.371645,-0.70578 -1.248834,-0.70671 l -0.4445,-4.7e-4 v 0.71967 0.71966 h 0.554542 c 0.32109,0 0.655371,-0.0521 0.794071,-0.12387 z"
         id="path8823"
         sodipodi:nodetypes="csssssscssssssssssssssssccsscsssccssscssssssssssssssssssscssssssscsssssssssssscsscsccsssssscscscscsssssssscsssssscsssscccccccccccssscccssssssssccccsssssscsssssccssccsscccccsssssccccsscccccccccccccccsscsscccsssssssccccccccccssssscccsssssccccccccccccssscccsssscccccssssscssssssssssssscccssscsscccsscccccccsscccsc" />
    </g>
    <path
       d="m -87.361449,154.62022 c -0.11641,-0.0198 -0.47836,-0.0791 -0.80433,-0.13174 -2.21511,-0.35753 -4.36871,-1.78218 -5.453,-3.60733 -0.5683,-0.95657 -0.62343,-0.87635 1.12885,-1.64322 0.83482,-0.36536 1.52369,-0.65518 1.53082,-0.64402 0.007,0.0111 0.15638,0.28051 0.33165,0.59864 0.47364,0.85967 1.29444,1.68762 2.02822,2.04597 1.67177,0.8164 4.16415,0.47166 4.95717,-0.68569 0.47637,-0.69522 0.57139,-1.71461 0.22846,-2.45107 -0.41536,-0.89199 -1.3475,-1.47654 -4.24417,-2.6615 -2.0724,-0.84775 -3.01577,-1.32829 -3.8673,-1.96995 -1.79293,-1.35102 -2.39985,-3.29658 -1.71216,-5.48847 0.91977,-2.93156 4.60412,-4.52832 8.28879,-3.59225 1.44364,0.36674 2.50249,0.97965 3.49191,2.02126 0.57881,0.60931 1.2267,1.58531 1.33267,2.0075 0.0505,0.20108 0.0177,0.21841 -0.98919,0.52393 -0.57276,0.17379 -1.33303,0.40719 -1.68948,0.51871 l -0.64809,0.20275 -0.27076,-0.53345 c -0.8538,-1.68214 -2.7709,-2.44578 -4.69,-1.86822 -0.94843,0.28543 -1.49706,0.98846 -1.50996,1.9349 -0.009,0.68238 0.21559,1.1299 0.79987,1.59176 0.59008,0.46643 1.11191,0.71977 3.13425,1.52183 2.93387,1.1635 3.92966,1.71603 4.93345,2.73728 0.66244,0.674 1.05875,1.34989 1.2719,2.16932 0.2039,0.78388 0.13677,2.59657 -0.12699,3.42899 -0.28945,0.91354 -0.66967,1.5571 -1.27552,2.159 -0.88225,0.87652 -1.89255,1.37657 -3.34099,1.65372 -0.63775,0.12203 -2.45902,0.22564 -2.83607,0.16135 z m 49.911001,-0.006 c -1.922762,-0.21717 -3.230931,-0.77975 -4.390941,-1.88837 -0.744633,-0.71168 -1.232754,-1.39729 -1.700149,-2.38811 -1.123053,-2.38078 -1.427091,-5.78273 -0.804926,-9.00671 0.599602,-3.10703 2.126242,-5.36536 4.34639,-6.42951 2.00837,-0.9626 4.807797,-1.03455 6.928358,-0.17801 1.13162,0.45709 2.197462,1.29921 2.912353,2.30104 0.408866,0.57297 1.079291,1.93063 1.028542,2.08287 -0.02201,0.066 -2.782816,0.86915 -3.422354,0.99554 -0.0074,0 -0.154331,-0.2545 -0.326578,-0.56885 -0.850323,-1.55169 -1.949466,-2.22249 -3.641783,-2.22249 -2.034871,0 -3.337348,1.22293 -3.967692,3.72533 -0.681125,2.70403 -0.473363,6.06498 0.500229,8.09222 0.697151,1.45161 1.762065,2.23338 3.140896,2.30577 1.645301,0.0864 3.009542,-0.52959 3.766301,-1.70045 0.371994,-0.57555 0.66902,-1.4338 0.66902,-1.93313 v -0.32975 h -1.905 -1.905 v -1.60867 -1.60863 h 3.725334 3.725333 v 5.07999 5.08 h -1.354667 -1.354666 v -1.06976 -1.06974 l -0.16537,0.21021 c -0.252265,0.32072 -1.259933,1.11504 -1.781964,1.4047 -1.043744,0.57916 -2.687243,0.87525 -4.021666,0.72451 z m 55.91105,-0.037 c -1.75303,-0.18587 -3.26243,-0.84537 -4.40786,-1.9259 -0.7499,-0.70742 -1.23857,-1.39073 -1.71726,-2.40125 -1.53735,-3.24538 -1.48881,-8.77803 0.10497,-11.9648 0.40021,-0.80021 0.71853,-1.25386 1.32758,-1.89204 0.62945,-0.65958 1.09506,-1.00682 1.87437,-1.39793 2.68423,-1.34712 6.65168,-1.08902 8.9253,0.58063 0.47655,0.34994 1.32402,1.23286 1.66604,1.73567 0.97458,1.4328 1.54103,3.33552 1.73302,5.82123 0.24638,3.19001 -0.41978,6.38742 -1.73302,8.31811 -0.34202,0.50284 -1.18949,1.38572 -1.66604,1.73569 -0.98337,0.72216 -2.44466,1.24413 -3.90136,1.39364 -0.95147,0.0976 -1.26031,0.0972 -2.20574,-0.003 z m 2.38234,-3.25913 c 2.22811,-0.50681 3.38627,-2.8793 3.38627,-6.93685 0,-4.75258 -1.51234,-7.06966 -4.61433,-7.06966 -3.12399,0 -4.61433,2.31071 -4.61433,7.15433 0,4.01957 1.07818,6.25062 3.31085,6.85101 0.61067,0.16423 1.81213,0.16476 2.53154,0 z m -95.250391,-6.93685 v -10.033 h 1.905 1.905 v 10.033 10.03301 h -1.905 -1.905 z m 9.99067,-0.003 v -10.03458 l 1.96798,0.0228 1.96798,0.0227 3.979855,6.85523 3.979849,6.85519 0.02167,-6.87636 0.02167,-6.87639 h 1.7775 1.7775 v 10.033 10.033 h -1.802139 -1.802149 l -4.061018,-7.03802 c -2.233568,-3.87092 -4.107448,-7.09988 -4.164168,-7.17549 -0.0814,-0.10843 -0.10371,1.37826 -0.10584,7.03801 l -0.003,7.17548 h -1.778 -1.778 v -10.03456 z m 40.996291,3.02837 c 1.11107,-3.85339 2.41029,-8.35871 2.88716,-10.01182 l 0.86702,-3.00567 2.37076,-0.0225 2.370749,-0.0225 2.69982,9.50513 c 1.4849,5.22782 2.7671102,9.74326 2.8493702,10.03429 l 0.14953,0.52918 h -1.8785602 -1.87856 l -0.54963,-2.15972 -0.54962,-2.15972 -3.209349,0.022 -3.20935,0.022 -0.35271,1.27 c -0.194,0.69851 -0.45939,1.66052 -0.58976,2.13783 l -0.23704,0.86783 h -1.87998 -1.87998 z m 8.449039,-0.55139 c 0,-0.13449 -2.200569,-8.64126 -2.247499,-8.68818 -0.019,-0.019 -0.0531,0.0185 -0.0757,0.0834 -0.0802,0.22958 -2.33344,8.57544 -2.33344,8.64301 0,0.0377 1.04775,0.0686 2.32833,0.0686 1.818349,0 2.328339,-0.0233 2.328339,-0.10686 z m 9.1440002,-2.47546 v -10.03301 h 3.8735 c 4.02613,0.003 4.98605,0.0543 6.199201,0.341 2.16159,0.51083 3.62676,1.91063 4.11924,3.93554 0.1955,0.80386 0.1955,2.57813 0,3.38199 -0.37412,1.53823 -1.31796,2.7405 -2.67728,3.41024 -1.34247,0.66148 -2.683631,0.86402 -5.73616098,0.8663 H -2.0174488 v 4.064 4.06401 h -1.905 -1.905 z m 8.8651,-1.42539 c 0.663211,-0.21861 1.127231,-0.60997 1.421901,-1.19928 0.23604,-0.4721 0.254,-0.57386 0.254,-1.43934 0,-0.86548 -0.018,-0.96726 -0.254,-1.43933 -0.29467,-0.58931 -0.75869,-0.98068 -1.421901,-1.19925 -0.36091,-0.11896 -0.85882,-0.15113 -2.74793998,-0.17756 l -2.30716002,-0.0323 v 2.84845 2.84845 l 2.30716002,-0.0323 c 1.88911998,-0.0265 2.38702998,-0.0586 2.74793998,-0.17756 z m 29.2348978,1.41904 v -10.03936 l 4.63549,0.0357 c 4.01628,0.031 4.72033,0.0554 5.2705,0.18284 2.62756,0.60873 4.07744,2.24917 4.4149,4.99516 0.17085,1.39017 -0.11874,2.83691 -0.7676,3.83481 -0.56842,0.87417 -1.39229,1.54943 -2.30851,1.89206 -0.27067,0.10123 -0.49212,0.21212 -0.49212,0.24644 0,0.0343 0.97155,2.03342 2.159,4.44248 1.18745,2.40906 2.159,4.3963 2.159,4.41612 0,0.0198 -0.93657,0.0259 -2.08127,0.0135 l -2.08127,-0.0225 -1.88451,-4.06399 -1.88452,-4.06401 -1.66454,-0.023 -1.66455,-0.023 v 4.1081 4.10813 h -1.905 -1.905 z m 8.3644,-1.35436 c 1.63567,-0.3334 2.31483,-1.26956 2.19481,-3.0254 -0.0779,-1.14019 -0.50741,-1.78519 -1.49988,-2.25258 -0.46153,-0.21736 -0.48694,-0.21956 -2.8575,-0.24638 l -2.39183,-0.0271 v 2.84224 2.84223 h 1.9509 c 1.44007,0 2.12178,-0.0348 2.6035,-0.13303 z m 11.44759,1.36071 v -10.03301 h 6.604 6.604 v 1.60867 1.60868 h -4.699 -4.699 v 2.37065 2.37067 h 3.429 3.429 v 1.60868 1.60866 h -3.429 -3.429 v 2.83633 2.83633 h 4.86834 4.86833 v 1.60868 1.60866 h -6.77333 -6.77334 z m -81.714597,-18.50577 c -1.753032,-0.18588 -3.262427,-0.84537 -4.407858,-1.92591 -0.749901,-0.70742 -1.238573,-1.39073 -1.71726,-2.40126 -1.537351,-3.24537 -1.488813,-8.77802 0.104971,-11.96479 0.400201,-0.80021 0.718521,-1.25387 1.327573,-1.89207 0.629452,-0.65955 1.095061,-1.00679 1.874375,-1.3979 2.68423,-1.34715 6.651679,-1.08904 8.925299,0.5806 0.47654,0.34997 1.32402,1.23285 1.66604,1.73571 0.97458,1.43278 1.54103,3.33551 1.73302,5.82123 0.24638,3.18997 -0.41978,6.3874 -1.73302,8.31809 -0.34202,0.50284 -1.1895,1.38574 -1.66604,1.73569 -0.98337,0.72213 -2.44466,1.24415 -3.90136,1.39363 -0.951472,0.0976 -1.26031,0.0972 -2.20574,-0.003 z m 2.38234,-3.25917 c 2.22811,-0.50676 3.38627,-2.87928 3.38627,-6.93679 0,-4.75259 -1.51234,-7.06966 -4.614334,-7.06966 -3.123988,0 -4.614333,2.3107 -4.614333,7.15432 0,4.01958 1.078188,6.25062 3.310856,6.85101 0.610668,0.16423 1.812131,0.16476 2.531541,0 z m 56.30293,3.3026 c -0.11641,-0.0198 -0.47836,-0.0791 -0.80433,-0.13173 -2.21512,-0.35753 -4.36871,-1.78218 -5.45301,-3.60733 -0.5683,-0.95657 -0.62343,-0.87635 1.12885,-1.64325 0.83482,-0.36534 1.52369,-0.65516 1.53083,-0.64402 0.007,0.0111 0.15637,0.28054 0.33165,0.59867 0.47364,0.85963 1.29444,1.68762 2.02822,2.04598 1.67178,0.81639 4.164137,0.47164 4.957157,-0.6857 0.47638,-0.69522 0.5714,-1.71464 0.22847,-2.45108 -0.41537,-0.89199 -1.3475,-1.47653 -4.244167,-2.66149 -2.0724,-0.84778 -3.01578,-1.32832 -3.8673,-1.96996 -1.79293,-1.35101 -2.39985,-3.29657 -1.71216,-5.48846 0.91977,-2.93156 4.60411,-4.52832 8.288787,-3.59224 1.44364,0.36673 2.50249,0.97961 3.49191,2.02122 0.57881,0.60934 1.22671,1.58533 1.33267,2.00751 0.0505,0.20107 0.0177,0.21843 -0.9892,0.52395 -0.57276,0.17377 -1.33302,0.4072 -1.68947,0.51871 l -0.64809,0.20272 -0.27076,-0.53342 c -0.85381,-1.68214 -2.770907,-2.4458 -4.689997,-1.86825 -0.94844,0.28547 -1.49707,0.98848 -1.50997,1.93492 -0.009,0.68239 0.21559,1.12988 0.79989,1.59177 0.59007,0.46641 1.1119,0.71979 3.13424,1.5218 2.933867,1.16354 3.929657,1.71604 4.933447,2.7373 0.66244,0.67398 1.05874,1.34991 1.27189,2.16933 0.20392,0.78384 0.13678,2.59656 -0.12698,3.429 -0.28946,0.91351 -0.66967,1.55709 -1.27552,2.159 -0.88225,0.8765 -1.89254,1.37657 -3.341,1.65372 -0.63775,0.122 -2.459007,0.22564 -2.836057,0.16133 z M -86.260779,115.67803 v -10.03301 h 1.905 1.905 v 10.03301 10.033 h -1.905 -1.905 z m 9.906,-0.003 v -10.03455 l 1.96798,0.0228 1.96798,0.0228 3.97985,6.8552 3.97986,6.85522 0.0217,-6.87636 0.0217,-6.87639 h 1.7775 1.7775 v 10.033 10.033 h -1.80213 -1.80215 l -4.06103,-7.03802 c -2.23356,-3.87091 -4.10743,-7.09988 -4.16416,-7.1755 -0.0814,-0.10843 -0.10371,1.37827 -0.10583,7.03802 l -0.003,7.1755 h -1.778 -1.778 v -10.03456 z m 21.166667,0.003 v -10.03301 h 3.462356 c 1.904306,0 3.848549,0.0396 4.320547,0.0881 2.953674,0.30308 5.097968,1.57184 6.391233,3.78156 1.862542,3.1824 1.862542,9.14431 0,12.32676 -1.30411,2.22824 -3.475802,3.50127 -6.454849,3.78377 -0.496993,0.0471 -2.437148,0.0857 -4.311457,0.0858 l -3.40783,8e-5 z m 7.829235,6.68768 c 1.472538,-0.31192 2.55026,-1.1398 3.166676,-2.43255 0.565557,-1.18613 0.7694,-2.31347 0.7694,-4.25513 0,-1.94168 -0.203843,-3.06902 -0.7694,-4.25512 -0.443519,-0.93017 -1.099616,-1.60623 -1.951345,-2.01069 -0.955092,-0.45357 -1.552855,-0.54672 -3.520069,-0.54837 h -1.7145 v 6.81566 6.81566 h 1.7145 c 1.183955,0 1.897152,-0.0402 2.304738,-0.12649 z m 31.540758,-6.68925 V 105.6419 l 1.96798,0.0228 1.96798,0.0228 3.9798602,6.85519 3.97985,6.85523 0.0217,-6.87639 0.0217,-6.87636 h 1.7775 1.77750002 v 10.033 10.033 h -1.80213002 -1.80215 l -4.06102,-7.03792 c -2.2335702,-3.8709 -4.1074402,-7.09987 -4.1641702,-7.17549 -0.0814,-0.10843 -0.10371,1.37826 -0.10583,7.03802 l -0.003,7.1755 h -1.778 -1.778 z m 21.3360012,0.003 v -10.033 h 6.6039998 6.604 v 1.60866 1.60864 h -4.699 -4.6989998 v 2.3707 2.37066 h 3.4289998 3.429 v 1.60864 1.6087 h -3.429 -3.4289998 v 2.8363 2.83636 h 4.8683298 4.86834 v 1.60864 1.6087 h -6.77334 -6.7733298 z m 36.4913268,0 v -10.033 h 1.905 1.905 v 10.033 10.033 h -1.905 -1.905 z m 10.09296,3.0268 c 1.11107,-3.85336 2.41029,-8.35869 2.88716,-10.0118 l 0.86702,-3.0057 2.37076,-0.0225 2.37075,-0.0225 2.69983,9.50513 c 1.4849,5.2278 2.76711,9.74323 2.84936,10.03427 l 0.14954,0.52918 h -1.87856 -1.87857 l -0.54963,-2.1597 -0.54962,-2.15974 -3.20935,0.022 -3.20935,0.022 -0.35271,1.27 c -0.194,0.6985 -0.45939,1.66053 -0.58976,2.13784 l -0.23704,0.86783 h -1.87998 -1.87998 z m 8.44904,-0.55136 c 0,-0.13446 -2.20057,-8.64127 -2.2475,-8.68818 -0.019,-0.019 -0.0531,0.0185 -0.0757,0.0834 -0.0802,0.22961 -2.33344,8.57546 -2.33344,8.64301 0,0.0377 1.04775,0.0686 2.32833,0.0686 1.81835,0 2.32833,-0.0233 2.32833,-0.10689 z M 5.7639122,97.258075 c -3.654871,-0.38785 -5.88705098,-2.57916 -6.33284098,-6.21691 -0.0608,-0.49578 -0.0935,-3.07673 -0.0936,-7.38717 v -6.62515 h 1.90499998 1.905 v 6.86156 c 0,5.92103 0.0183,6.95025 0.13365,7.50858 0.397971,1.92786 1.493021,2.73251 3.718451,2.73251 2.22543,0 3.3204698,-0.80465 3.7186898,-2.73251 0.11532,-0.55833 0.13364,-1.58755 0.13364,-7.50858 v -6.86156 h 1.905 1.905 v 6.62515 c 0,4.31044 -0.0329,6.89139 -0.0936,7.38717 -0.3874,3.16129 -2.11471,5.23586 -4.9654598,5.96373 -1.21349,0.30983 -2.50325,0.39489 -3.83864,0.25318 z M -40.202115,87.053995 v -10.04049 l 4.550833,0.0378 c 4.240887,0.0352 4.605647,0.05 5.355582,0.21666 2.270684,0.50464 3.516002,1.50896 4.059812,3.27418 0.71015,2.30513 -0.15509,4.55951 -2.149454,5.60046 l -0.641916,0.33507 0.796864,0.40352 c 1.551866,0.78584 2.279156,1.72879 2.547456,3.30287 0.68856,4.03979 -1.3204,6.39916 -5.806612,6.81937 -0.531064,0.0497 -2.70864,0.0906 -4.839065,0.0907 l -3.8735,2.6e-4 z m 9.374886,6.6654 c 0.495138,-0.22386 1.041839,-0.7667 1.263634,-1.2547 0.113273,-0.24921 0.147997,-0.56547 0.151688,-1.38155 0.0042,-0.94051 -0.01773,-1.10815 -0.197511,-1.506 -0.240877,-0.53309 -0.790752,-1.04569 -1.347563,-1.25625 -0.34019,-0.12861 -0.760468,-0.15475 -2.916301,-0.18134 l -2.518833,-0.0311 v 2.93224 2.93224 l 2.561167,-0.0267 c 2.482011,-0.0259 2.57484,-0.0329 3.003719,-0.22686 z m -0.450443,-8.89885 c 0.967783,-0.37571 1.489557,-1.16261 1.489557,-2.2464 0,-1.0795 -0.527127,-1.87925 -1.471565,-2.2326 -0.448979,-0.16798 -0.641943,-0.1804 -2.807277,-0.1804 h -2.325158 v 2.46505 2.46501 l 2.307167,-0.0383 c 2.153165,-0.0357 2.340551,-0.0512 2.807276,-0.23241 z m 10.718224,2.23459 v -10.03933 l 4.635499,0.0357 c 4.01627,0.031 4.72032,0.0554 5.2705,0.18285 2.6275502,0.60872 4.0774302,2.24917 4.4149002,4.99517 0.17084,1.39018 -0.11875,2.83689 -0.76761,3.8348 -0.56842,0.87418 -1.39228,1.54942 -2.3085,1.89206 -0.27067,0.10123 -0.49213,0.21211 -0.49213,0.24643 0,0.0343 0.97155,2.03346 2.159,4.44248 1.18745,2.40906 2.159,4.39632 2.159,4.41611 0,0.0198 -0.93657,0.0257 -2.08127,0.0135 l -2.08127,-0.0228 -1.8845102,-4.064 -1.88451,-4.064 -1.66455,-0.0227 -1.664549,-0.023 v 4.1081 4.10813 h -1.905 -1.905 z m 8.364399,-1.35435 c 1.63567,-0.3334 2.3148302,-1.26958 2.19481,-3.02537 -0.0779,-1.14022 -0.50741,-1.78522 -1.49988,-2.25262 -0.46153,-0.21735 -0.48694,-0.21955 -2.8575,-0.24635 l -2.391829,-0.0271 v 2.84223 2.84223 h 1.950909 c 1.44006,0 2.12177,-0.0348 2.60349,-0.13303 z m 32.614261,1.35914 v -10.03455 l 1.96798,0.0227 1.96798,0.0227 3.97986,6.85521 3.979847,6.85519 0.0217,-6.87636 0.0217,-6.87637 h 1.77751 1.7775 v 10.03298 10.033 h -1.80214 -1.80215 l -4.061017,-7.03802 c -2.23356,-3.87091 -4.10744,-7.09988 -4.16417,-7.1755 -0.0814,-0.10843 -0.1037,1.37827 -0.10583,7.03802 l -0.003,7.1755 h -1.778 -1.778 z m 21.251327,0.003 v -10.033 h 6.604 6.604 v 1.60866 1.60867 h -4.699 -4.699 v 2.37067 2.37066 h 3.429 3.429 v 1.60867 1.60868 h -3.429 -3.429 v 2.83632 2.83633 h 4.86834 4.86833 v 1.60868 1.60867 h -6.77333 -6.77334 z m 18.45734,0 v -10.033 h 1.905 1.905 v 10.033 10.03299 h -1.905 -1.905 z"
       style="fill:#79add3;fill-opacity:1;stroke-width:0.0224014"
       id="path8887" />
  </g>
</svg>
