<?xml version="1.0" encoding="UTF-8" standalone="no"?>
<!-- Created with Inkscape (http://www.inkscape.org/) -->

<svg
   width="215.15016mm"
   height="114.6528mm"
   viewBox="0 0 215.15016 114.6528"
   version="1.1"
   id="svg5"
   inkscape:version="1.1.2 (0a00cf5339, 2022-02-04, custom)"
   sodipodi:docname="ceai.svg"
   xmlns:inkscape="http://www.inkscape.org/namespaces/inkscape"
   xmlns:sodipodi="http://sodipodi.sourceforge.net/DTD/sodipodi-0.dtd"
   xmlns="http://www.w3.org/2000/svg"
   xmlns:svg="http://www.w3.org/2000/svg">
  <sodipodi:namedview
     id="namedview7"
     pagecolor="#ffffff"
     bordercolor="#666666"
     borderopacity="1.0"
     inkscape:pageshadow="2"
     inkscape:pageopacity="0.0"
     inkscape:pagecheckerboard="0"
     inkscape:document-units="mm"
     showgrid="false"
     fit-margin-top="0"
     fit-margin-left="0"
     fit-margin-right="0"
     fit-margin-bottom="0"
     inkscape:zoom="0.23563061"
     inkscape:cx="-354.36822"
     inkscape:cy="522.00348"
     inkscape:window-width="1366"
     inkscape:window-height="715"
     inkscape:window-x="-8"
     inkscape:window-y="-8"
     inkscape:window-maximized="1"
     inkscape:current-layer="layer1" />
  <defs
     id="defs2" />
  <g
     inkscape:label="Layer 1"
     inkscape:groupmode="layer"
     id="layer1"
     transform="translate(-19.899326,-86.720022)">
    <path
       d="m 177.37032,174.83503 c 0,-2.66372 0.019,-2.82222 0.33808,-2.82222 0.18594,0 0.36814,0.0902 0.40488,0.20042 0.0483,0.14502 0.16696,0.13788 0.42905,-0.0258 0.9238,-0.57693 1.8266,0.38446 1.8266,1.94514 0,1.34404 -0.69543,2.11078 -1.68842,1.86156 -0.4108,-0.1031 -0.42825,-0.0714 -0.42825,0.77782 0,0.82674 -0.0292,0.88531 -0.44097,0.88531 h -0.44097 z m 1.9275,0.45638 c 0.31956,-0.38506 0.17163,-2.40381 -0.19292,-2.63267 -0.21266,-0.1335 -0.37113,-0.12041 -0.57327,0.0474 -0.35473,0.2944 -0.40422,2.57832 -0.0589,2.71767 0.39127,0.15788 0.61381,0.12218 0.82507,-0.13236 z m 27.70583,2.12014 c 0,-0.13515 0.12026,-0.29186 0.26723,-0.34826 0.14699,-0.0564 0.34641,-0.31082 0.4432,-0.56538 0.16017,-0.4213 -0.13484,-1.7059 -0.97937,-4.26461 -0.0444,-0.1346 0.0891,-0.22049 0.34292,-0.22049 0.37156,0 0.4518,0.14502 0.75634,1.36702 l 0.34068,1.36701 0.19833,-0.61736 c 0.10908,-0.33955 0.28524,-0.95471 0.39144,-1.36702 0.15975,-0.62014 0.26626,-0.74965 0.61657,-0.74965 0.41839,0 0.42058,0.009 0.18265,0.74965 -0.13245,0.41231 -0.48564,1.55838 -0.78483,2.54682 -0.29919,0.98843 -0.66791,1.92109 -0.81939,2.07257 -0.34178,0.34178 -0.95577,0.36086 -0.95577,0.0297 z m 10.05417,-0.11261 c 0,-0.19707 0.12127,-0.40485 0.26949,-0.46172 0.61316,-0.23529 0.6151,-0.68269 0.012,-2.77517 l -0.59048,-2.04924 h 0.57549 c 0.57039,0 0.57755,0.0106 0.80362,1.19063 l 0.22813,1.19062 0.2574,-1.19062 c 0.25466,-1.17799 0.26358,-1.19063 0.84067,-1.19063 h 0.58329 l -0.24342,0.83785 c -0.13386,0.46082 -0.44581,1.54434 -0.69317,2.40784 -0.56683,1.9786 -0.83272,2.39876 -1.51792,2.39876 -0.41021,0 -0.52509,-0.0784 -0.52509,-0.35832 z m -35.72677,-1.66214 c -0.3565,-0.3565 -0.43295,-0.60722 -0.43295,-1.41987 0,-1.04851 0.33126,-1.91404 0.80165,-2.09455 1.18809,-0.45591 2.19696,0.39631 2.19696,1.85584 0,1.39045 -0.50979,2.07588 -1.55142,2.08593 -0.38725,0.004 -0.72581,-0.13892 -1.01424,-0.42735 z m 1.58552,-0.48824 c 0.5479,-0.78224 0.18454,-2.60658 -0.51917,-2.60658 -0.40342,0 -0.79375,0.73729 -0.79375,1.4993 0,0.76202 0.39033,1.49931 0.79375,1.49931 0.13452,0 0.36815,-0.17641 0.51917,-0.39203 z m 2.14184,0.34793 c -0.0618,-0.31529 -0.26044,-1.2281 -0.44151,-2.02847 l -0.32919,-1.45521 h 0.38746 c 0.34524,0 0.41338,0.14897 0.62524,1.36702 l 0.23779,1.36701 0.34555,-1.36701 c 0.26174,-1.03552 0.41846,-1.36702 0.6463,-1.36702 0.22899,0 0.38002,0.32624 0.63287,1.36702 l 0.33209,1.36701 0.24765,-1.36701 c 0.20604,-1.1374 0.30381,-1.36702 0.5821,-1.36702 0.41945,0 0.41825,0.044 -0.0612,2.24993 -0.34766,1.5997 -0.43752,1.81418 -0.74145,1.76957 -0.26409,-0.0387 -0.41034,-0.30844 -0.61863,-1.14079 -0.33179,-1.32579 -0.45619,-1.4767 -0.60479,-0.73368 -0.29456,1.47293 -0.47865,1.91192 -0.8017,1.91192 -0.22756,0 -0.36034,-0.17353 -0.43863,-0.57327 z m 4.58662,0.0306 c -0.99695,-1.18481 -0.34858,-3.51425 0.97814,-3.51425 0.73987,0 1.38743,0.69605 1.38743,1.49129 v 0.62538 h -1.05834 c -1.17113,0 -1.33944,0.22571 -0.77223,1.03553 0.2833,0.40446 0.59345,0.43092 1.3455,0.1148 0.43869,-0.18439 0.40896,0.37109 -0.0325,0.60735 -0.65943,0.35291 -1.36345,0.21574 -1.84799,-0.3601 z m 1.66001,-2.17873 c 0,-0.27711 -0.46478,-0.80635 -0.70815,-0.80635 -0.16818,0 -0.70296,0.7008 -0.70296,0.92119 0,0.0754 0.3175,0.13714 0.70556,0.13714 0.49388,0 0.70555,-0.0756 0.70555,-0.25198 z m 1.23472,0.69295 v -2.02847 h 0.44098 c 0.24253,0 0.44097,0.0952 0.44097,0.21167 0,0.16463 0.047,0.16463 0.21166,0 0.3226,-0.32259 0.90753,-0.27193 0.77735,0.0673 -0.0589,0.15345 -0.10707,0.3122 -0.10707,0.35277 0,0.0406 -0.15026,0.0738 -0.3339,0.0738 -0.45607,0 -0.54804,0.32801 -0.54804,1.9547 0,1.37221 -0.008,1.39669 -0.44097,1.39669 h -0.44098 z m 2.72601,1.59552 c -0.3721,-0.37209 -0.43295,-0.59637 -0.43295,-1.59552 0,-0.99914 0.0608,-1.22342 0.43295,-1.59551 0.89032,-0.89033 2.15864,-0.38208 2.33542,0.93586 l 0.10029,0.74785 h -1.08154 c -1.01701,0 -1.08157,0.0247 -1.08157,0.41363 0,0.2275 0.16272,0.5609 0.36162,0.74089 0.30349,0.27466 0.44512,0.29574 0.88119,0.13115 0.62865,-0.23729 0.92466,0.0522 0.42612,0.41678 -0.52924,0.38699 -1.45216,0.29424 -1.94153,-0.19513 z m 1.56261,-2.34517 c -0.27229,-0.7638 -0.57859,-0.90669 -1.01283,-0.47247 -0.49521,0.49522 -0.34045,0.78115 0.42284,0.78115 0.59101,0 0.68289,-0.0481 0.58999,-0.30868 z m 1.80848,2.43824 c -0.94264,-1.04159 -0.47865,-3.71706 0.64461,-3.71706 0.18537,0 0.49057,0.0822 0.67822,0.1826 0.31822,0.1703 0.34118,0.11687 0.34118,-0.79375 0,-0.85875 0.0425,-0.97635 0.35278,-0.97635 0.33809,0 0.35278,0.1176 0.35278,2.82222 0,2.70463 -0.0146,2.82223 -0.35278,2.82223 -0.19403,0 -0.35278,-0.0953 -0.35278,-0.21167 0,-0.16463 -0.047,-0.16463 -0.21166,0 -0.32214,0.32214 -1.10753,0.25281 -1.45235,-0.12822 z m 1.38684,-0.46646 c 0.58725,-0.58726 0.24927,-2.72143 -0.43097,-2.72143 -0.3422,0 -0.70297,0.8284 -0.70297,1.61415 0,0.77954 0.30828,1.38446 0.70556,1.38446 0.0832,0 0.27592,-0.12473 0.42838,-0.27718 z m 3.27579,-2.01588 v -2.82222 h 0.44097 c 0.4188,0 0.44097,0.0506 0.44097,1.00542 0,0.78199 0.047,0.95838 0.21167,0.79375 0.37389,-0.37389 1.1461,-0.24694 1.53941,0.25309 0.28101,0.35723 0.36559,0.71902 0.36559,1.56371 0,0.8447 -0.0846,1.20649 -0.36559,1.56372 -0.38474,0.48911 -1.16348,0.62902 -1.5195,0.273 -0.13809,-0.13809 -0.22493,-0.13809 -0.31027,0 -0.0652,0.10547 -0.27259,0.19176 -0.46088,0.19176 -0.32465,0 -0.34237,-0.1462 -0.34237,-2.82223 z m 2.01847,1.90103 c 0.64683,-0.92349 0.0493,-2.97382 -0.72861,-2.50005 -0.24264,0.14779 -0.33248,0.4598 -0.37264,1.29422 -0.0725,1.50596 0.47283,2.10304 1.10125,1.20583 z m 6.44819,-1.72464 v -2.64583 h 0.68582 0.68582 l 0.39558,1.6316 c 0.21758,0.89738 0.44997,1.69239 0.51644,1.76669 0.0665,0.0743 0.30852,-0.65991 0.53789,-1.63159 l 0.41708,-1.7667 h 0.67373 0.67375 v 2.64583 2.64584 h -0.55363 -0.55363 l 0.0909,-1.59519 c 0.05,-0.87736 0.0578,-1.56202 0.0173,-1.52148 -0.0405,0.0405 -0.25422,0.73854 -0.4748,1.5511 -0.3278,1.2075 -0.46865,1.4873 -0.77103,1.53171 -0.38208,0.0561 -0.38013,0.0605 -1.07837,-2.43559 -0.14835,-0.53034 -0.17493,-0.39981 -0.1886,0.92604 l -0.0159,1.54341 h -0.52917 -0.52917 v -2.64584 z m 8.64306,0 v -2.64583 h 1.5875 c 1.57573,0 1.5875,0.003 1.5875,0.44097 0,0.42138 -0.047,0.44097 -1.05834,0.44097 h -1.05833 v 0.70556 0.70556 h 0.88195 c 0.82315,0 0.88194,0.0294 0.88194,0.44097 0,0.41157 -0.0588,0.44097 -0.88194,0.44097 h -0.88195 v 1.05833 1.05834 h -0.52917 -0.52916 z m 3.52778,0.61736 v -2.02847 h 0.52916 0.52917 v 2.02847 2.02848 h -0.52917 -0.52916 z m 1.76388,0 v -2.02847 h 0.52917 c 0.37481,0 0.52917,0.0852 0.52917,0.29192 0,0.27164 0.0224,0.27164 0.32256,0 0.44919,-0.4065 1.01798,-0.36411 1.34313,0.10011 0.20063,0.28642 0.27459,0.83284 0.27459,2.02847 v 1.63645 h -0.52231 -0.52229 l -0.051,-1.54341 c -0.0465,-1.40882 -0.0817,-1.5434 -0.40374,-1.5434 -0.32202,0 -0.35722,0.13458 -0.40375,1.5434 l -0.051,1.54341 h -0.52229 -0.52231 z m 3.70417,-0.61736 v -2.64583 h 1.05003 c 1.29975,0 1.86046,0.24334 2.14531,0.93106 0.18734,0.45227 0.17501,0.61192 -0.0819,1.05948 -0.28597,0.49826 -0.28579,0.54536 0.003,0.86449 0.48494,0.53585 0.39669,1.52192 -0.18064,2.01852 -0.41048,0.35309 -0.67658,0.41812 -1.71098,0.41812 h -1.22488 v -2.64584 z m 2.26602,1.45521 c 0.28024,-0.53484 -0.0661,-1.10243 -0.67284,-1.10243 -0.50639,0 -0.53485,0.0375 -0.53485,0.70556 0,0.66449 0.0304,0.70555 0.52296,0.70555 0.31884,0 0.58611,-0.12048 0.68473,-0.30868 z m -0.11963,-2.24373 c 0.24705,-0.54225 -0.0499,-0.97537 -0.66867,-0.97537 -0.37169,0 -0.41939,0.0803 -0.41939,0.70556 0,0.6366 0.0435,0.70556 0.44475,0.70556 0.30182,0 0.50857,-0.14005 0.64331,-0.43575 z m -7.54742,-1.76067 c -0.14571,-0.37974 0.0748,-0.62581 0.56074,-0.62581 0.34169,0 0.43057,0.091 0.43057,0.44098 0,0.35423 -0.0878,0.44097 -0.44651,0.44097 -0.24557,0 -0.49073,-0.11526 -0.5448,-0.25614 z m -51.39619,-3.44803 c 0,-0.11693 10.52454,-0.17639 31.22083,-0.17639 20.69629,0 31.22084,0.0595 31.22084,0.17639 0,0.11693 -10.52455,0.17639 -31.22084,0.17639 -20.69629,0 -31.22083,-0.0595 -31.22083,-0.17639 z m -42.3208,-3.83676 c -1.18287,-0.60316 -1.32943,-1.00542 -1.38608,-3.80432 -0.043,-2.12463 -0.003,-2.59239 0.26458,-3.10613 0.47548,-0.91233 1.12632,-1.3027 2.29722,-1.37786 1.54802,-0.0994 2.57505,0.68249 2.81164,2.14041 l 0.10321,0.63602 h -0.81683 c -0.66515,0 -0.81683,-0.0582 -0.81683,-0.31353 0,-0.17244 -0.1266,-0.49428 -0.28134,-0.7152 -0.22092,-0.31541 -0.41894,-0.39014 -0.92199,-0.34793 -0.91471,0.0767 -1.08452,0.52706 -1.08452,2.87596 0,2.47386 0.15241,2.82223 1.23473,2.82223 0.76456,0 0.79351,-0.0201 0.95194,-0.66146 0.1574,-0.63717 0.19141,-0.66146 0.92604,-0.66146 0.67444,0 0.76219,0.0459 0.75877,0.39688 -0.008,0.78399 -0.63143,1.82264 -1.27923,2.13004 -0.80501,0.382 -1.99694,0.37611 -2.76131,-0.0136 z m 6.24927,0.14931 c -0.19403,-0.0861 -0.5909,-0.40797 -0.88194,-0.71534 -0.49203,-0.51963 -0.53343,-0.6677 -0.58986,-2.10948 -0.0511,-1.30575 -0.002,-1.66551 0.31041,-2.27806 0.42127,-0.82576 1.12366,-1.26387 2.02628,-1.26387 1.39475,0 2.15006,0.8483 2.33557,2.62309 l 0.11299,1.08108 h -1.61263 c -1.42774,0 -1.61262,0.0359 -1.61262,0.31353 0,0.67634 0.50756,1.09758 1.32251,1.09758 0.42533,0 0.82239,-0.0794 0.88235,-0.17639 0.19374,-0.31348 0.40221,-0.18858 0.59148,0.35436 0.16574,0.47544 0.13827,0.56138 -0.26358,0.82469 -0.50933,0.33373 -2.09102,0.48388 -2.62096,0.24881 z m 1.46639,-4.29418 c -0.0461,-0.47765 -0.13617,-0.58257 -0.54026,-0.62907 -0.38698,-0.0445 -0.52065,0.038 -0.66146,0.40836 -0.27455,0.72214 -0.22567,0.79398 0.54026,0.79398 0.70236,0 0.71562,-0.0115 0.66146,-0.57327 z m 9.02548,3.94853 c -0.52304,-0.52304 -0.5259,-0.53701 -0.5259,-2.56795 0,-1.92444 -0.0203,-2.04204 -0.35277,-2.04204 -0.28559,0 -0.35278,-0.11759 -0.35278,-0.61736 0,-0.49976 0.0672,-0.61736 0.35278,-0.61736 0.30051,0 0.35277,-0.11759 0.35277,-0.79375 v -0.79375 h 0.79375 0.79375 v 0.79375 c 0,0.72908 0.0359,0.79375 0.44098,0.79375 0.38637,0 0.44097,0.0764 0.44097,0.61736 0,0.54093 -0.0546,0.61736 -0.44097,0.61736 -0.43741,0 -0.44098,0.0127 -0.44098,1.57308 0,1.87311 0.0783,2.13109 0.64688,2.13109 0.39221,0 0.42762,0.062 0.37801,0.66146 -0.0532,0.64257 -0.0762,0.66301 -0.80767,0.71586 -0.63888,0.0462 -0.83256,-0.0252 -1.27882,-0.4715 z m 7.74637,0.1049 c -0.86217,-0.57597 -1.21611,-1.39775 -1.21644,-2.82437 -5.3e-4,-1.99374 0.73005,-3.09184 2.16438,-3.25351 1.53713,-0.17325 2.58536,0.96281 2.59398,2.81134 l 0.004,0.83097 -1.54341,0.051 c -1.53386,0.0507 -1.54302,0.0537 -1.48209,0.49194 0.0337,0.24253 0.14266,0.54019 0.24208,0.66146 0.21092,0.25724 1.5168,0.29101 1.8994,0.0491 0.19304,-0.12206 0.31974,-0.063 0.47881,0.22319 0.34357,0.61809 0.27407,0.77371 -0.48031,1.07556 -1.00311,0.40136 -1.94679,0.35998 -2.66027,-0.11666 z m 1.84907,-3.96523 c -0.0638,-0.26679 -0.14934,-0.5446 -0.19016,-0.61736 -0.0662,-0.11802 -0.93534,-0.19889 -0.93534,-0.087 0,0.0249 -0.0738,0.3027 -0.16408,0.61736 l -0.16407,0.5721 h 0.78479 c 0.76666,0 0.78212,-0.0112 0.66886,-0.48507 z m 6.1214,4.05667 c -0.90832,-0.46503 -1.24968,-1.272 -1.24968,-2.95424 0,-1.68224 0.34136,-2.48922 1.24968,-2.95424 1.31703,-0.67427 2.82324,-0.21871 3.42935,1.03723 0.44909,0.93058 0.44909,2.90344 0,3.83401 -0.60611,1.25594 -2.11232,1.71151 -3.42935,1.03724 z m 1.92968,-1.55461 c 0.0946,-0.24885 0.17203,-0.87869 0.17203,-1.39963 0,-1.38301 -0.22337,-1.85209 -0.88195,-1.85209 -0.65857,0 -0.88194,0.46908 -0.88194,1.85209 0,1.38301 0.22337,1.85208 0.88194,1.85208 0.4151,0 0.57717,-0.10329 0.70992,-0.45245 z m 36.69949,1.55461 c -0.90832,-0.46503 -1.24968,-1.272 -1.24968,-2.95424 0,-2.22619 0.81302,-3.26322 2.55763,-3.26226 1.5696,7.9e-4 2.45066,1.17372 2.45066,3.26226 0,1.46882 -0.39858,2.44077 -1.20182,2.93058 -0.68136,0.41549 -1.77174,0.42558 -2.55679,0.0237 z m 1.92969,-1.55461 c 0.0946,-0.24885 0.17201,-0.87869 0.17201,-1.39963 0,-1.38301 -0.22336,-1.85209 -0.88194,-1.85209 -0.65858,0 -0.88194,0.46908 -0.88194,1.85209 0,1.38301 0.22336,1.85208 0.88194,1.85208 0.4151,0 0.57716,-0.10329 0.70993,-0.45245 z m 8.27234,1.34796 c -0.28358,-0.28357 -0.52439,-0.70029 -0.53513,-0.92604 -0.0333,-0.70073 0.0483,-1.27895 0.22807,-1.616 0.22375,-0.41945 1.19975,-0.82291 1.99066,-0.82291 0.56876,0 0.62302,-0.0442 0.62302,-0.50757 0,-0.27916 -0.11806,-0.60554 -0.26234,-0.72529 -0.32031,-0.26583 -0.79599,-0.11214 -0.79599,0.25718 0,0.20703 -0.20878,0.27012 -0.89384,0.27012 -0.8443,0 -0.88729,-0.022 -0.77584,-0.39687 0.0649,-0.21829 0.34067,-0.6261 0.61286,-0.90627 1.00064,-1.02997 3.10033,-0.75259 3.61079,0.47701 0.13924,0.33542 0.25795,1.5027 0.29478,2.89877 l 0.0617,2.33723 -0.75519,-7e-5 c -0.5065,-5e-5 -0.78842,-0.0867 -0.85612,-0.26309 -0.0852,-0.2221 -0.17037,-0.20838 -0.54741,0.0882 -0.64941,0.51083 -1.38525,0.45035 -1.99998,-0.16439 z m 2.09495,-0.93079 c 0.11642,-0.11641 0.21167,-0.51329 0.21167,-0.88194 0,-0.54441 -0.0639,-0.67028 -0.34018,-0.67028 -0.45634,0 -0.89454,0.46412 -0.89454,0.94746 0,0.42028 0.29956,0.81643 0.61736,0.81643 0.10671,0 0.28928,-0.0952 0.40569,-0.21167 z m 3.80429,1.03007 c -0.49629,-0.42688 -0.50638,-0.47252 -0.56822,-2.56678 -0.0577,-1.95292 -0.091,-2.13218 -0.39714,-2.13218 -0.26436,0 -0.33421,-0.12903 -0.33421,-0.61736 0,-0.49976 0.0672,-0.61736 0.35278,-0.61736 0.30115,0 0.35278,-0.11759 0.35278,-0.80341 v -0.80342 l 0.83785,0.0538 0.83784,0.0538 0.0542,0.74965 c 0.0483,0.66807 0.10234,0.74965 0.49626,0.74965 0.39241,0 0.4358,0.0643 0.38673,0.57327 -0.0424,0.43937 -0.14797,0.58642 -0.45216,0.62963 -0.3826,0.0543 -0.39687,0.12251 -0.39687,1.89618 v 1.83981 h 0.45162 c 0.41401,0 0.44706,0.0551 0.39688,0.66146 -0.0529,0.6388 -0.0797,0.66328 -0.78394,0.7147 -0.56926,0.0416 -0.84,-0.0421 -1.23444,-0.38137 z m 6.82928,0.10737 c -0.90831,-0.46503 -1.24968,-1.272 -1.24968,-2.95424 0,-2.22619 0.81303,-3.26322 2.55764,-3.26226 1.5696,7.9e-4 2.45066,1.17372 2.45066,3.26226 0,1.46882 -0.39859,2.44077 -1.20183,2.93058 -0.68135,0.41549 -1.77174,0.42558 -2.55679,0.0237 z m 1.9297,-1.55461 c 0.0946,-0.24885 0.17201,-0.87869 0.17201,-1.39963 0,-1.38301 -0.22336,-1.85209 -0.88194,-1.85209 -0.65859,0 -0.88195,0.46908 -0.88195,1.85209 0,1.38301 0.22336,1.85208 0.88195,1.85208 0.41509,0 0.57716,-0.10329 0.70993,-0.45245 z m -85.72938,-1.39963 v -3.08681 h 0.79375 c 0.60425,0 0.79375,0.0662 0.79375,0.27739 0,0.22994 0.0795,0.21485 0.46476,-0.0882 0.93498,-0.73545 2.04765,-0.32749 2.5221,0.92473 0.10348,0.2731 0.18814,1.52326 0.18814,2.77812 v 2.28157 h -0.87697 -0.87696 l -0.0491,-2.42534 c -0.0482,-2.38144 -0.0564,-2.4264 -0.45566,-2.48299 -0.81028,-0.11487 -0.91633,0.1903 -0.91633,2.63688 v 2.27145 h -0.79375 -0.79375 z m 9.34861,0 v -3.08681 h 0.79375 c 0.58797,0 0.79375,0.0686 0.79375,0.26459 0,0.37047 0.22745,0.32939 0.48823,-0.0882 0.12671,-0.20289 0.41135,-0.35278 0.66994,-0.35278 0.41988,0 0.44603,0.0496 0.39538,0.74966 -0.0469,0.64778 -0.11416,0.75794 -0.49521,0.81065 -0.82391,0.11397 -0.88195,0.2855 -0.88195,2.60643 v 2.18326 h -0.88194 -0.88195 z m 17.81528,0.61736 c 0,-2.35185 -0.0168,-2.46945 -0.35278,-2.46945 -0.28558,0 -0.35278,-0.11759 -0.35278,-0.61736 0,-0.49976 0.0672,-0.61736 0.35278,-0.61736 0.26702,0 0.35302,-0.11792 0.35376,-0.48507 0.003,-1.55093 0.8248,-2.51154 2.14937,-2.51288 0.76764,-8e-4 0.88331,0.13277 0.73919,0.85339 -0.0831,0.41535 -0.21318,0.54975 -0.57248,0.59138 -0.41072,0.0476 -0.47131,0.14134 -0.51922,0.80353 -0.0507,0.70067 -0.0248,0.74965 0.39688,0.74965 0.39797,0 0.45111,0.0727 0.45111,0.61736 0,0.54093 -0.0546,0.61736 -0.44097,0.61736 h -0.44097 v 2.46945 2.46944 h -0.88195 -0.88194 z m 5.83363,1.27882 c 0.18737,-0.65485 0.71755,-2.55929 1.17817,-4.23211 l 0.83751,-3.04147 0.88534,-0.001 0.88535,-0.001 0.76776,2.77812 c 0.42227,1.52797 0.94901,3.43297 1.17054,4.23334 l 0.40278,1.4552 h -0.84767 -0.84767 l -0.21157,-0.88186 -0.21158,-0.88194 h -1.11134 -1.11134 l -0.21158,0.88194 -0.21157,0.88194 h -0.8519 -0.8519 l 0.34067,-1.19062 z m 3.30539,-3.35139 c -0.19246,-0.75186 -0.37229,-1.38959 -0.39961,-1.41717 -0.0273,-0.0276 -0.20983,0.58757 -0.40557,1.36701 l -0.3559,1.41717 h 0.75551 0.75551 z m 3.56098,0.30868 v -4.23333 h 0.79375 0.79375 v 4.23333 4.23333 h -0.79375 -0.79375 z m 5.64444,0 v -4.23333 h 0.79375 0.79375 v 4.23333 4.23333 h -0.79375 -0.79375 z m 2.82223,1.14653 v -3.08681 h 0.79375 c 0.66967,0 0.79375,0.0538 0.79375,0.34436 0,0.31932 0.0339,0.31291 0.46672,-0.0882 0.49971,-0.4631 1.25529,-0.56177 1.85286,-0.24196 0.65876,0.35256 0.85542,1.21983 0.85542,3.7725 v 2.38691 h -0.79375 -0.79375 v -2.01699 c 0,-2.4393 -0.15339,-2.96827 -0.83794,-2.88951 l -0.48498,0.0558 -0.0491,2.42535 -0.0491,2.42534 h -0.87697 -0.87697 z m 5.64444,0 v -3.08681 h 0.79375 c 0.68742,0 0.79375,0.0494 0.79375,0.36846 0,0.35457 0.0204,0.35125 0.5427,-0.0882 0.87277,-0.73437 1.85894,-0.55857 2.36588,0.42177 0.20054,0.38778 0.26642,1.12798 0.26642,2.99338 v 2.4782 h -0.79375 -0.79375 v -2.17114 c 0,-2.38911 -0.14847,-2.84532 -0.89182,-2.7404 -0.43055,0.0608 -0.43115,0.0639 -0.48017,2.4862 l -0.0491,2.42534 h -0.87697 -0.87697 z m 12.03101,0.3966 c -0.41645,-1.47931 -0.80274,-2.86825 -0.85841,-3.08653 -0.0948,-0.37162 -0.0459,-0.39688 0.76893,-0.39688 h 0.87016 l 0.3102,1.71979 c 0.1706,0.94589 0.35669,1.83886 0.41354,1.98438 0.0568,0.14552 0.27067,-0.60854 0.47518,-1.6757 l 0.37184,-1.94027 0.83446,-0.0538 c 0.53435,-0.0344 0.83448,0.0179 0.83448,0.14551 0,0.1096 -0.36714,1.50302 -0.81587,3.09647 l -0.81589,2.89719 -0.81571,-2.7e-4 -0.81572,-2.6e-4 -0.75719,-2.68966 z m 13.89816,-0.3966 v -3.08681 h 0.88194 0.88195 v 3.08681 3.0868 h -0.88195 -0.88194 z m 8.46666,0 v -3.08681 h 0.79375 c 0.60424,0 0.79375,0.0662 0.79375,0.27739 0,0.22994 0.0795,0.21485 0.46477,-0.0882 0.93497,-0.73545 2.04765,-0.32749 2.5221,0.92473 0.10347,0.2731 0.18813,1.52326 0.18813,2.77812 v 2.28157 h -0.87697 -0.87697 l -0.0491,-2.42534 c -0.0482,-2.38144 -0.0564,-2.4264 -0.45565,-2.48299 -0.81029,-0.11487 -0.91634,0.1903 -0.91634,2.63688 v 2.27145 h -0.79375 -0.79375 z m -8.34077,-4.60721 c -0.0692,-0.0692 -0.12589,-0.39483 -0.12589,-0.72352 v -0.59763 l 0.83784,0.0538 c 0.8297,0.0532 0.83785,0.0598 0.83785,0.67113 0,0.59493 -0.0259,0.61926 -0.71196,0.66975 -0.39156,0.0288 -0.76859,-0.004 -0.83784,-0.0735 z m -84.59771,-7.2254 c -3.14248,-0.84506 -5.48775,-3.45608 -6.48279,-7.21739 -0.2911,-1.10039 -0.32602,-1.96395 -0.32091,-7.9375 0.005,-6.35964 0.0256,-6.7736 0.39381,-8.08602 1.3379,-4.76877 4.56939,-7.34394 9.21365,-7.34234 5.37288,0.002 8.6232,2.92362 9.09949,8.17968 l 0.11647,1.28533 -0.94791,0.11382 c -0.52135,0.0626 -1.43249,0.11451 -2.02476,0.11535 l -1.07684,0.002 -0.10481,-1.19062 c -0.25173,-2.85992 -1.32961,-4.48098 -3.37483,-5.07555 -3.52622,-1.02509 -6.29239,1.05599 -6.97225,5.24548 -0.29309,1.80611 -0.22851,12.50494 0.0844,13.98219 0.36016,1.70026 1.00853,2.93531 2.01696,3.84197 1.01293,0.91072 1.82603,1.18881 3.46913,1.18647 1.39613,-0.002 2.65935,-0.49582 3.46518,-1.35469 0.63095,-0.67245 1.15436,-2.1816 1.29995,-3.7481 l 0.11576,-1.24555 h 2.00314 2.00315 l -10e-4,0.66147 c -0.005,2.3565 -0.86735,4.7439 -2.25597,6.24377 -1.13946,1.23076 -1.97211,1.74776 -3.62621,2.2515 -1.46668,0.44668 -4.5928,0.49241 -6.09247,0.0891 z m 16.5621,-15.15488 v -15.08125 h 8.46666 8.46667 v 1.5875 1.5875 h -6.35 -6.35 v 4.85069 4.85069 h 5.55625 5.55625 v 1.6757 1.67569 h -5.55625 -5.55625 v 5.37987 5.37986 h 6.43819 6.4382 v 1.5875 1.5875 h -8.55486 -8.55486 z m 20.81388,12.96458 v -2.11667 h 2.11667 2.11667 v 2.11667 2.11667 h -2.11667 -2.11667 z m 8.75121,-0.39687 c 0.42495,-1.38245 2.50657,-8.14917 4.62579,-15.03716 l 3.85315,-12.52361 2.04664,-0.0496 2.04664,-0.0496 0.16448,0.57878 c 0.27386,0.96375 8.87268,29.09326 8.97461,29.35893 0.0787,0.20515 -0.27499,0.23859 -2.08698,0.19732 l -2.18179,-0.0497 -1.06672,-3.70416 -1.06675,-3.70417 -4.78667,-0.0469 -4.78664,-0.0469 -0.44225,1.45802 c -0.24322,0.80191 -0.73975,2.50974 -1.10338,3.79517 l -0.66114,2.33716 h -2.15082 -2.15082 z m 12.44247,-14.94819 c -1.02466,-3.58908 -1.91763,-6.46643 -1.9844,-6.39409 -0.11495,0.12452 -3.68705,12.51589 -3.68705,12.7901 0,0.0713 1.69525,0.12961 3.76722,0.12961 h 3.76723 z m 12.4966,15.34506 v -2.11667 h 2.11667 2.11667 v 2.11667 2.11667 h -2.11667 -2.11667 z m 10.58334,-12.96458 v -15.08125 h 2.11666 2.11667 v 15.08125 15.08125 h -2.11667 -2.11666 z m 10.23055,12.96458 v -2.11667 h 2.11667 2.11666 v 2.11667 2.11667 h -2.11666 -2.11667 z"
       style="fill:#404040;fill-opacity:1;stroke-width:0.0466696"
       id="path1649" />
    <g
       id="g969"
       transform="translate(-0.07017958,-0.21053875)"
       style="fill:#595959;fill-opacity:1">
      <path
         style="fill:#595959;fill-opacity:1;stroke-width:0.176389"
         d="m 70.882307,165.77532 c -8.713427,-1.43751 -15.501616,-7.95718 -17.400571,-16.71225 -0.238519,-1.09968 -0.313763,-2.18662 -0.302779,-4.37376 0.01339,-2.66625 0.06091,-3.08754 0.566362,-5.02168 2.692201,-10.30178 12.359077,-17.01315 22.762337,-15.8031 8.942484,1.04015 16.222502,7.60471 18.20409,16.41506 1.022214,4.54487 0.459083,9.38425 -1.593386,13.6931 -1.10471,2.31917 -2.043312,3.68242 -3.78305,5.49457 -2.960031,3.08324 -6.057946,4.8771 -10.324105,5.97824 -2.139925,0.55234 -5.864181,0.70344 -8.128898,0.32982 z m 5.503471,-10.51856 c 1.760649,-0.36218 3.773055,-1.48246 5.166977,-2.87638 2.22706,-2.22706 3.197576,-4.79482 3.039428,-8.04164 -0.110508,-2.26877 -0.537173,-3.58657 -1.746763,-5.39506 -1.117172,-1.6703 -2.351518,-2.74982 -4.113807,-3.59777 -1.674871,-0.80589 -2.800368,-1.06354 -4.645928,-1.06354 -4.465737,0 -8.612528,3.03812 -9.949175,7.28921 -0.578903,1.84115 -0.570539,4.99913 0.01776,6.70299 0.526923,1.52611 1.891951,3.57542 3.076674,4.61899 1.041038,0.91701 2.923503,1.90102 4.356922,2.27747 1.170615,0.30744 3.516363,0.34935 4.797915,0.0857 z m -30.570965,-6.39032 c -1.537499,-0.57535 -2.554295,-1.84754 -2.741763,-3.43042 -0.338684,-2.85966 2.45677,-5.24664 5.217291,-4.45493 0.941417,0.26999 1.933342,1.05196 2.450689,1.93197 0.393737,0.66974 0.473916,1.01736 0.473916,2.05468 0,1.08191 -0.07125,1.3638 -0.53383,2.112 -0.998209,1.61457 -3.182848,2.41668 -4.866303,1.7867 z m 2.771939,-2.48378 c 0.511903,-0.51191 0.599722,-0.72112 0.599722,-1.42875 0,-0.70763 -0.08782,-0.91685 -0.599722,-1.42875 -0.511904,-0.51191 -0.72112,-0.59973 -1.42875,-0.59973 -0.70763,0 -0.916847,0.0878 -1.42875,0.59973 -0.511904,0.5119 -0.599722,0.72112 -0.599722,1.42875 0,0.70763 0.08782,0.91684 0.599722,1.42875 0.511903,0.5119 0.72112,0.59972 1.42875,0.59972 0.70763,0 0.916846,-0.0878 1.42875,-0.59972 z m 52.966958,2.48378 c -1.5375,-0.57535 -2.554303,-1.84754 -2.741771,-3.43042 -0.338684,-2.85966 2.456771,-5.24664 5.217291,-4.45493 0.94142,0.26999 1.93335,1.05196 2.45069,1.93197 0.39374,0.66974 0.47392,1.01736 0.47392,2.05468 0,1.08191 -0.0713,1.3638 -0.53383,2.112 -0.99821,1.61457 -3.18285,2.41668 -4.8663,1.7867 z m 2.77193,-2.48378 c 0.51191,-0.51191 0.59973,-0.72112 0.59973,-1.42875 0,-0.70763 -0.0878,-0.91685 -0.59973,-1.42875 -0.5119,-0.51191 -0.72112,-0.59973 -1.42875,-0.59973 -0.70763,0 -0.91684,0.0878 -1.42875,0.59973 -0.5119,0.5119 -0.59972,0.72112 -0.59972,1.42875 0,0.70763 0.0878,0.91684 0.59972,1.42875 0.51191,0.5119 0.72112,0.59972 1.42875,0.59972 0.70763,0 0.91685,-0.0878 1.42875,-0.59972 z"
         id="path971"
         sodipodi:nodetypes="sssssssssscsssssssssccssssssssssssssssssssscssssssssss" />
    </g>
    <path
       d="M 119.67094,144.04643 V 86.720022 h 1.05834 1.05833 v 57.326408 57.32639 h -1.05833 -1.05834 z M 69.929288,198.52601 C 61.372486,197.88796 52.545168,194.98069 45.253286,190.39897 24.988151,177.66577 15.472412,153.11695 21.87497,130.08731 25.320999,117.69214 33.311251,106.6964 44.088315,99.518526 56.266422,91.407531 71.434881,88.591547 85.804288,91.774072 96.333525,94.10608 105.68256,99.361893 113.22006,107.18661 l 1.92756,2.00103 -0.86924,0.77568 c -0.47807,0.42663 -1.11819,0.96989 -1.42247,1.20726 l -0.55322,0.43159 -2.09261,-2.1389 C 98.780245,97.780592 82.761871,92.376065 66.616482,94.754976 47.908324,97.51149 32.173442,110.714 26.198972,128.66768 c -5.370731,16.1394 -2.239687,33.88972 8.322324,47.18042 11.362981,14.2986 29.634985,21.3856 47.594549,18.46007 10.71883,-1.74605 20.418635,-6.77208 27.951325,-14.48321 1.16935,-1.19705 2.45074,-2.56508 2.84755,-3.04007 l 0.72146,-0.86362 1.42988,1.10615 c 0.78644,0.60838 1.42988,1.14603 1.42988,1.19478 0,0.24234 -2.68486,3.1967 -4.61346,5.07655 -3.2082,3.1271 -6.03838,5.32449 -9.75029,7.57027 -9.552875,5.77968 -20.97072,8.49454 -32.202902,7.65699 z m 0.5589,-12.32817 c -16.001486,-1.54941 -29.360542,-11.52703 -35.182661,-26.27727 -0.829067,-2.10043 -1.84231,-5.57243 -1.67503,-5.73971 0.05245,-0.0524 0.366424,-0.13934 0.69773,-0.1931 l 0.602369,-0.0978 0.487757,1.7369 c 1.393531,4.96234 3.960487,9.94908 7.247763,14.07999 6.451851,8.10761 15.973465,13.47984 26.25797,14.81511 4.359005,0.56594 10.081077,0.27448 14.322562,-0.72956 5.801667,-1.37336 12.743087,-4.81256 16.257137,-8.05477 1.415575,-1.30608 2.038255,-1.60511 3.322015,-1.59535 3.08034,0.0234 5.01372,3.16567 3.61741,5.87924 -1.2763,2.48031 -4.67528,2.97337 -6.551777,0.9504 -0.566238,-0.61044 -1.034368,-1.50716 -1.034368,-1.98136 0,-0.6364 -0.3296,-0.57473 -1.63451,0.30581 -5.02551,3.39118 -11.207055,5.74122 -17.503686,6.65436 -2.238574,0.32465 -7.088818,0.45447 -9.23068,0.24707 z m 33.236122,-6.151 c 0.93443,-0.42437 1.43036,-1.48814 1.12504,-2.41325 -0.29945,-0.90737 -1.09817,-1.48438 -2.05472,-1.48438 -0.67218,0 -0.89231,0.0945 -1.39758,0.59972 -0.50295,0.50295 -0.59972,0.7268 -0.59972,1.38732 0,0.91631 0.46755,1.62965 1.30796,1.99557 0.70415,0.30659 0.76372,0.30346 1.61902,-0.085 z m -33.001272,0.84342 c -6.659438,-0.62992 -13.069657,-3.11167 -18.568183,-7.18877 -2.08321,-1.54467 -6.044094,-5.56548 -7.44918,-7.56188 -3.273851,-4.65161 -5.216763,-9.06458 -6.259846,-14.21811 -3.077464,-15.20469 3.768,-30.6039 17.147323,-38.57375 13.098098,-7.80234 30.088756,-6.42123 41.764603,3.39489 0.87313,0.73405 2.13954,1.89779 2.814245,2.58609 l 1.22676,1.25144 -0.5212,0.54855 c -0.28665,0.3017 -0.74226,0.70743 -1.012437,0.90162 l -0.491248,0.35307 -1.80355,-1.7362 c -6.50219,-6.25937 -14.635139,-9.58551 -23.438141,-9.58551 -10.462305,0 -19.970999,4.63152 -26.577933,12.94565 -3.751014,4.72026 -6.183757,10.77379 -6.91896,17.21685 -0.258054,2.26148 -0.119462,6.84889 0.274439,9.08403 2.301446,13.05925 12.01285,23.62857 24.721423,26.90534 6.163688,1.58924 13.049618,1.37308 18.858759,-0.59201 5.569183,-1.88392 9.293763,-4.20483 13.492643,-8.4077 l 2.565075,-2.56751 1.00049,0.7769 c 0.89513,0.69508 0.98004,0.81623 0.80628,1.15038 -0.39069,0.75138 -5.217935,5.34481 -6.760535,6.43307 -7.56042,5.33369 -16.143038,7.70912 -24.870827,6.88356 z M 29.800812,148.65238 c -1.921269,-0.49814 -3.147891,-2.05235 -3.147891,-3.98858 0,-2.77366 2.566189,-4.67258 5.257271,-3.89027 3.601538,1.047 4.097375,5.80744 0.782527,7.51292 -0.746332,0.38399 -2.141406,0.56051 -2.891907,0.36593 z m 2.20486,-2.2975 c 0.242536,-0.16651 0.58619,-0.5948 0.763678,-0.95176 0.270814,-0.54467 0.290195,-0.74754 0.120518,-1.26167 -0.317971,-0.96345 -1.092666,-1.50613 -2.150092,-1.50613 -0.77248,0 -0.962919,0.0769 -1.48577,0.59973 -1.812478,1.81248 0.627057,4.57841 2.751666,3.11983 z m 2.230165,-11.01096 c -0.660193,-0.15613 -0.671536,-0.17246 -0.555334,-0.79962 0.212212,-1.14531 1.347992,-4.47424 2.223903,-6.51817 5.203052,-12.14128 16.498681,-21.39746 29.392832,-24.0859 3.341418,-0.69668 5.216819,-0.88443 8.777187,-0.87867 8.3444,0.0135 15.999256,2.28141 22.82225,6.76164 0.89597,0.58833 1.7036,1.02361 1.79472,0.96729 0.0911,-0.0563 0.16567,-0.26039 0.16567,-0.45351 0,-0.87998 1.056228,-2.24812 2.204855,-2.85596 0.9562,-0.50601 2.55072,-0.49814 3.55293,0.0175 3.05168,1.57021 3.03748,5.6995 -0.0251,7.32021 -1.38033,0.73045 -3.58851,0.3611 -4.58612,-0.76711 -0.589875,-0.66711 -3.737255,-2.946 -5.508105,-3.9882 -4.806158,-2.82857 -10.520306,-4.74023 -15.960277,-5.33948 -2.188279,-0.24104 -6.537788,-0.24239 -8.745154,-0.003 -9.143502,0.99293 -17.688525,5.08985 -24.122017,11.56531 -4.848291,4.87993 -8.329385,10.76697 -10.18607,17.22619 l -0.572161,1.99049 -0.673957,-0.15938 z m 69.488473,-22.32486 c 0.93443,-0.42438 1.43036,-1.48814 1.12504,-2.41325 -0.29945,-0.90737 -1.09817,-1.48439 -2.05472,-1.48439 -0.67218,0 -0.89231,0.0945 -1.39758,0.59973 -0.50295,0.50295 -0.59972,0.7268 -0.59972,1.38732 0,0.91631 0.46755,1.62965 1.30796,1.99557 0.70415,0.30658 0.76372,0.30346 1.61902,-0.085 z"
       style="fill:#00b0f0;fill-opacity:1;stroke-width:0.0466696"
       id="path2890" />
  </g>
</svg>
