<?xml version="1.0" encoding="UTF-8" standalone="no"?>
<!-- Created with Inkscape (http://www.inkscape.org/) -->

<svg
   width="1396.5103mm"
   height="1016.9841mm"
   viewBox="0 0 1396.5102 1016.9841"
   version="1.1"
   id="svg5"
   inkscape:version="1.1.2 (0a00cf5339, 2022-02-04, custom)"
   sodipodi:docname="psb-academy.svg"
   xmlns:inkscape="http://www.inkscape.org/namespaces/inkscape"
   xmlns:sodipodi="http://sodipodi.sourceforge.net/DTD/sodipodi-0.dtd"
   xmlns="http://www.w3.org/2000/svg"
   xmlns:svg="http://www.w3.org/2000/svg">
  <sodipodi:namedview
     id="namedview7"
     pagecolor="#ffffff"
     bordercolor="#666666"
     borderopacity="1.0"
     inkscape:pageshadow="2"
     inkscape:pageopacity="0.0"
     inkscape:pagecheckerboard="0"
     inkscape:document-units="mm"
     showgrid="false"
     fit-margin-top="0"
     fit-margin-left="0"
     fit-margin-right="0"
     fit-margin-bottom="0"
     inkscape:zoom="0.058907653"
     inkscape:cx="2622.7492"
     inkscape:cy="2155.9168"
     inkscape:window-width="1366"
     inkscape:window-height="715"
     inkscape:window-x="-8"
     inkscape:window-y="-8"
     inkscape:window-maximized="1"
     inkscape:current-layer="layer1" />
  <defs
     id="defs2" />
  <g
     inkscape:label="Layer 1"
     inkscape:groupmode="layer"
     id="layer1"
     transform="translate(1010.5163,-273.82776)">
    <g
       id="g13900"
       transform="translate(-358.91168,669.98529)"
       style="fill:#b30537;fill-opacity:1">
      <path
         style="fill:#b30537;fill-opacity:1;stroke-width:0.352778"
         d="m -619.19107,513.59132 c -1.53946,-0.40887 -3.95514,-2.39007 -4.80292,-3.93912 -0.574,-1.04881 -0.618,-19.14546 -0.7845,-322.66806 l -0.17639,-321.55694 -0.9675,-3.50928 c -3.03541,-11.00994 -9.49992,-17.3942 -22.13944,-21.8646 l -3.35139,-1.18533 -0.0957,-6.71086 -0.0957,-6.71085 0.97766,-0.20658 c 0.5377,-0.11362 32.8864,-5.76642 71.88598,-12.56179 38.99958,-6.79536 77.33771,-13.47971 85.19583,-14.8541 16.56091,-2.89652 16.25591,-2.89714 19.10028,0.0388 1.26504,1.30577 1.72668,2.10511 2.02847,3.51227 0.25108,1.17074 0.3907,7.18554 0.3907,16.83126 v 15.00949 l 1.67569,-1.26441 c 7.81179,-5.89446 18.0637,-12.10979 27.42847,-16.62883 18.86504,-9.10347 37.74092,-14.32813 61.20695,-16.94147 6.98555,-0.77796 26.89167,-1.08803 34.15311,-0.53198 60.58282,4.63914 115.75906,37.56814 150.17983,89.62687 13.78603,20.850285 24.26776,45.003791 30.54199,70.379164 5.67841,22.965728 7.98999,44.2134276 7.62783,70.113773 -0.23986,17.152584 -1.30066,27.622676 -4.35176,42.951506 -12.84764,64.547287 -50.53175,122.006747 -102.61628,156.465907 -31.5842,20.89612 -65.57551,32.39565 -104.95139,35.50588 -6.82721,0.5393 -28.7995,0.52727 -37.04167,-0.0205 -16.49513,-1.09576 -29.20066,-2.98559 -41.86595,-6.22723 -5.659,-1.4484 -15.89752,-4.73096 -20.14156,-6.45753 l -1.85889,-0.75625 0.11235,96.21767 c 0.10224,87.55811 0.16426,96.43992 0.68903,98.68712 2.58278,11.05997 8.77044,18.70329 19.692,24.32456 l 4.56747,2.35084 v 7.04627 c 0,5.3182 -0.10815,7.08477 -0.44097,7.20316 -0.68185,0.24257 -166.07458,28.10009 -169.42153,28.53613 -0.58208,0.0758 -1.63962,-0.0166 -2.35008,-0.20518 z m 209.77141,-320.79216 c 19.59278,-2.5684 36.12005,-10.87184 49.94021,-25.09041 5.10041,-5.24743 7.9942,-8.85257 12.13692,-15.12044 5.50621,-8.33081 9.3989,-15.7939 13.39038,-25.67213 18.65815,-46.175758 21.36595,-116.9730728 6.37688,-166.728181 -9.3018,-30.876639 -25.73046,-54.796352 -46.44285,-67.619619 -20.58034,-12.74152 -44.51746,-15.09945 -67.27758,-6.6272 -8.80461,3.27744 -19.71249,10.10326 -29.61696,18.533379 l -1.11305,0.947364 V 39.158258 172.89459 l 1.29248,1.13576 c 11.60704,10.19948 21.78626,15.64161 33.81075,18.0763 2.352,0.47622 5.85376,1.01653 7.7817,1.20065 4.52048,0.43176 14.51573,0.17423 19.72112,-0.50814 z M 28.036778,263.29989 C 21.677888,263.11578 11.300965,262.43206 4.7534451,261.76584 -32.192795,258.00635 -65.84342,248.11108 -100.91302,230.69363 c -11.21915,-5.57206 -12.6213,-6.55719 -13.35331,-9.38185 -0.20853,-0.80458 -0.63655,-26.51491 -1.06782,-64.13736 -0.39589,-34.53694 -0.81714,-67.041007 -0.93614,-72.23125 l -0.21632,-9.436806 h 7.96121 7.96124 l 0.21537,0.970139 c 2.63906,11.888153 8.344429,27.674037 14.767172,40.858657 9.542603,19.58907 20.248103,34.77517 33.934717,48.13748 16.081057,15.69998 32.98391,24.87979 51.6427498,28.04682 4.6823135,0.79474 14.9717832,1.05741 21.3514162,0.54504 19.086759,-1.53289 33.476353,-7.13042 43.737776,-17.01398 7.332204,-7.06215 11.803415,-15.4118 13.273899,-24.78797 0.602368,-3.84086 0.174801,-10.96306 -0.912142,-15.19346 C 73.80659,122.90142 64.291891,114.6266 28.565945,94.558022 -17.05376,68.931786 -22.812187,65.602657 -33.875721,58.45866 -57.902709,42.943811 -75.551017,27.916394 -88.080943,12.303367 -97.442501,0.63827572 -105.10847,-14.017454 -109.18012,-28.033915 c -4.83659,-16.649545 -6.66203,-38.729825 -4.59363,-55.5625 5.57382,-45.359645 34.869756,-81.994505 81.229836,-101.578745 22.9438899,-9.69235 49.396367,-15.30098 80.099251,-16.98318 9.622049,-0.52719 32.112161,-0.23293 41.159218,0.53853 32.490585,2.77054 65.102955,8.51262 90.833465,15.99314 3.9358,1.14423 4.56015,1.43726 5.88487,2.76195 0.83382,0.83384 1.65114,2.07509 1.86891,2.8383 0.24496,0.85852 1.03078,26.81897 2.14086,70.72581 0.9646,38.153176 1.75384,69.704756 1.75384,70.114578 0,0.737059 -0.0893,0.745137 -8.20209,0.743268 l -8.20208,-0.0035 -1.90221,-4.672436 c -20.87792,-51.281281 -47.1781,-84.01743 -75.286624,-93.7085 -7.441494,-2.56564 -10.732805,-3.04071 -20.883385,-3.01429 -9.472789,0.0247 -13.709015,0.45037 -21.315327,2.14206 -16.987273,3.77808 -27.646242,12.6522 -31.086389,25.881 -0.979382,3.76609 -1.315826,10.55721 -0.709295,14.317049 1.525905,9.459083 7.22323,17.922977 17.663053,26.240042 8.917199,7.104023 19.767973,13.380741 48.931371,28.304705 6.699779,3.428506 18.814666,9.992607 29.026306,15.72701 29.20997,16.403038 48.95074,30.2948977 64.4887,45.381545 24.3835,23.67527 37.45286,48.873728 41.73191,80.461416 0.93419,6.896033 1.30094,22.689113 0.69395,29.881303 -2.08989,24.76239 -11.02402,46.85919 -26.99815,66.7747 -3.62716,4.52208 -13.00057,14.12183 -18.00391,18.4386 -33.0594,28.52296 -82.568271,46.86564 -133.526386,49.47059 -6.353316,0.3248 -11.46115,0.35645 -19.579166,0.12139 z m 454.377772,-0.13003 c -47.33449,-1.90754 -96.39812,-14.45666 -148.08094,-37.87504 -17.13978,-7.76633 -46.87616,-22.76955 -48.84364,-24.64357 -0.62307,-0.59352 -1.37713,-1.59385 -1.67569,-2.22296 -0.48701,-1.02627 -0.54278,-27.84292 -0.54278,-260.938278 0,-185.866092 -0.11007,-260.888152 -0.38682,-263.637892 -1.29191,-12.83652 -6.47376,-19.36073 -18.92777,-23.83111 l -3.26319,-1.17132 v -8.03972 c 0,-4.42185 0.0397,-8.04001 0.0882,-8.04035 0.0485,-3.5e-4 38.71631,-6.5091 85.92841,-14.46389 47.21211,-7.95479 86.23004,-14.46326 86.70647,-14.46326 2.19491,0 4.93698,1.91509 6.16757,4.30747 0.65825,1.27975 0.67324,3.77345 0.67324,112.09514 0,60.93246 0.0714,110.78628 0.15865,110.78628 0.0873,0 2.66696,-1.64823 5.73264,-3.66274 25.52947,-16.77576 50.05327,-25.43578 81.5976,-28.81436 8.85561,-0.94849 29.59753,-1.33359 38.14272,-0.70816 63.34732,4.63638 116.78994,41.4882 149.84391,103.326089 15.49951,28.996763 24.96612,61.178867 28.50367,96.899452 0.79379,8.0152523 0.91211,35.812095 0.18697,43.920834 -3.27257,36.594909 -11.19473,65.564565 -25.85458,94.544445 -42.16873,83.36005 -130.78601,130.87922 -236.15463,126.63294 z m 13.20242,-67.54908 c 18.47544,-2.62583 37.27281,-13.53958 51.33213,-29.8033 20.2613,-23.43814 32.99383,-57.18606 37.93268,-100.541672 1.65788,-14.553671 1.92987,-20.382583 1.93414,-41.451389 0.004,-21.1946421 -0.2382,-26.1222069 -1.94469,-39.511112 -5.22873,-41.023797 -18.96328,-70.512771 -41.2043,-88.468237 -18.77134,-15.15438 -45.00044,-21.49539 -70.95377,-17.15344 -11.1717,1.869 -21.567,6.61266 -29.80972,13.60299 l -2.46945,2.09423 -0.0886,143.182578 c -0.0819,132.332342 -0.0448,143.231062 0.49036,143.822382 1.26005,1.39235 7.60913,5.31372 12.12186,7.4868 7.35627,3.54238 14.18393,5.55999 22.75417,6.72394 4.84537,0.65807 15.32915,0.66661 19.9052,0.0162 z"
         id="path13904"
         sodipodi:nodetypes="ssscsscccsssssscsssssssssscsscssscssssssssssssscccsssssssssscccsssssssssssssssssssssccsssssssssssssssssssssssscssssssssssssssssssscsssscssssss" />
    </g>
    <path
       d="m -455.9927,1290.2969 c -15.97837,-2.3219 -28.77172,-9.64 -37.74501,-21.591 -5.91509,-7.8781 -9.71571,-17.4328 -11.53495,-28.9989 -0.60166,-3.8252 -0.6381,-8.5714 -0.6381,-83.0792 0,-74.5078 0.0364,-79.254 0.6381,-83.0791 4.03268,-25.6388 18.95281,-43.1678 41.87162,-49.1933 6.47041,-1.7012 9.86099,-2.0939 18.16806,-2.1045 10.13689,-0.013 16.09689,0.9076 24.05239,3.7147 17.73441,6.2576 29.94426,21.1004 33.77364,41.0567 1.12718,5.8742 1.26423,9.0956 1.26423,29.7122 v 20.9114 h -14.28749 -14.28749 l -0.006,-18.6091 c -0.008,-23.4517 -0.27655,-26.2086 -3.15402,-32.3673 -3.41736,-7.3143 -9.17624,-11.9252 -17.47721,-13.9933 -4.57136,-1.1389 -13.06752,-1.1389 -17.63889,0 -9.9793,2.4863 -16.57388,8.7826 -19.64411,18.7558 l -0.81453,2.6458 -0.0987,80.9625 c -0.0685,56.1646 0.0169,81.7189 0.27845,83.432 0.48867,3.1994 2.06953,7.7671 3.56951,10.3136 0.65296,1.1085 2.39321,3.2352 3.86718,4.7259 2.26392,2.2896 3.24979,2.9847 6.35,4.4774 4.23489,2.0389 7.06473,2.8039 11.87902,3.2114 6.82434,0.5776 13.58,-0.5168 18.53219,-3.0021 5.1634,-2.5914 8.69223,-6.251 11.19713,-11.6124 2.85461,-6.1097 3.1538,-9.1934 3.1574,-32.5437 l 0.004,-18.7854 h 14.2875 14.2875 v 21.0877 c 0,12.5577 -0.14949,22.2969 -0.36954,24.0771 -2.57527,20.8338 -12.45111,36.0176 -28.73463,44.1787 -5.66889,2.8412 -11.81555,4.6663 -19.29567,5.7296 -4.62238,0.6571 -16.83008,0.6382 -21.45016,-0.033 z m -198.4435,-4.8133 c 0.10213,-0.4386 10.90335,-57.9475 24.00268,-127.7975 13.09934,-69.85 23.99393,-127.9142 24.2102,-129.0317 l 0.39317,-2.0319 17.1343,0.091 17.13431,0.091 23.89748,128.2348 c 13.14362,70.529 24.00399,128.9094 24.1342,129.734 l 0.23671,1.4993 h -16.544 -16.54405 l -5.26739,-29.8097 -5.26743,-29.8097 h -22.98975 -22.98973 l -0.59206,3.2631 c -0.32565,1.7948 -2.77442,15.1695 -5.44171,29.7216 l -4.84958,26.4583 -15.4215,0.092 -15.42156,0.092 z m 82.25271,-88.9037 c -0.11296,-0.6306 -3.94469,-24.959 -8.51492,-54.0632 -8.69552,-55.3745 -8.63283,-54.986 -8.84266,-54.7761 -0.13469,0.1346 -18.14609,108.9304 -18.14609,109.6092 0,0.2621 5.43146,0.3766 17.85455,0.3766 h 17.85454 z m 202.42165,88.1944 c 0.12833,-0.8246 11.06858,-59.2049 24.3118,-129.734 l 24.07854,-128.2347 17.13309,-0.091 17.13315,-0.091 0.39232,2.0318 c 0.2158,1.1175 11.02921,59.1818 24.02983,129.0318 13.00059,69.85 23.72238,127.3572 23.82618,127.7938 l 0.18875,0.7937 h -16.58053 -16.58057 l -0.18399,-0.7937 c -0.10126,-0.4366 -2.40533,-13.4144 -5.12022,-28.8396 -2.71489,-15.4252 -5.0292,-28.4836 -5.14294,-29.0186 l -0.2068,-0.9726 -22.97684,0.091 -22.97687,0.091 -4.66994,25.5764 c -2.56847,14.067 -5.01219,27.4417 -5.43055,29.7215 l -0.76063,4.1451 h -15.34847 -15.34851 z m 73.60621,-141.9048 c -4.75541,-30.1714 -8.73675,-54.857 -8.84745,-54.857 -0.1107,0 -4.21907,24.4078 -9.12974,54.2396 -4.91067,29.8318 -9.00374,54.5174 -9.09574,54.857 -0.15769,0.582 0.85865,0.6173 17.77593,0.6173 h 17.94324 z m 80.40458,13.5588 v -129.8452 l 34.83681,0.1416 c 37.79047,0.1536 37.29334,0.1298 45.88476,2.2002 13.53582,3.262 24.04623,10.9336 30.8144,22.4917 3.48885,5.9578 6.29889,14.4503 7.78169,23.5175 l 0.78306,4.7882 0.12211,73.5541 c 0.0877,52.8687 0.009,74.9431 -0.27956,78.4931 -1.93191,23.7561 -11.40267,40.0554 -28.17416,48.4878 -5.04573,2.5369 -13.60881,4.8451 -20.93507,5.6432 -2.16514,0.2359 -15.82762,0.3731 -37.12986,0.3731 h -33.70418 z m 69.54509,98.5443 c 4.47207,-1.2489 7.54885,-3.0139 10.54478,-6.0492 4.88988,-4.9541 7.08462,-11.1415 7.7741,-21.9164 0.24865,-3.8866 0.32565,-28.7381 0.23159,-74.7889 -0.15089,-73.8828 -0.0607,-70.1032 -1.83515,-76.9056 -1.87182,-7.1758 -6.33021,-12.7799 -12.3662,-15.544 -4.84529,-2.2188 -4.74102,-2.2085 -23.71157,-2.3553 l -17.37431,-0.1346 v 99.3496 99.3495 l 17.02155,-0.1264 c 16.08111,-0.1194 17.17034,-0.168 19.71521,-0.8787 z m 79.32714,-98.5212 v -129.8222 h 50.8 50.8 v 14.8167 14.8166 H 0.14894987 -34.42328 v 40.3931 40.393 H -9.3760501 15.67118 v 14.2875 14.2875 H -9.3760501 -34.42328 v 45.5084 45.5083 H 0.14894987 34.72118 v 14.8167 14.8166 h -50.8 -50.8 z m 127.70554,0 v -129.8222 h 22.93056 c 12.61181,0 22.93057,0.065 22.93057,0.1443 0,0.123 23.4516,129.7044 34.06743,188.239 1.88259,10.3805 3.52287,18.9872 3.64506,19.1261 0.12218,0.1388 1.86198,-9.3068 3.86617,-20.9903 2.00424,-11.6835 10.29642,-58.3682 18.42714,-103.7437 8.13067,-45.3756 14.78307,-82.5628 14.78307,-82.6383 0,-0.075 10.16,-0.1371 22.57779,-0.1371 h 22.57777 v 129.8222 129.8222 h -14.81603 -14.81606 l -0.0888,-98.7455 -0.0888,-98.7456 -3.83149,21.0463 c -2.91303,16.0014 -32.93991,171.4992 -33.91847,175.6511 l -0.18709,0.7937 h -15.60373 -15.60367 l -14.92258,-76.6393 c -8.2074,-42.1516 -16.72698,-86.6141 -18.93242,-98.8055 -2.20538,-12.1914 -4.10244,-22.2589 -4.21563,-22.372 -0.11316,-0.1132 -0.20577,44.35 -0.20577,98.8071 v 99.013 h -14.2875 -14.2875 v -129.8222 z m 238.83057,78.1322 v -51.6899 l -25.4,-77.7861 c -13.97,-42.7824 -25.4,-77.9434 -25.4,-78.1357 0,-0.2273 5.8276,-0.3175 16.6596,-0.258 l 16.6597,0.092 17.4716,60.0348 c 9.6094,33.0191 17.5629,59.9273 17.6746,59.7958 0.1116,-0.1314 8.0415,-27.1867 17.6219,-60.1229 l 17.4189,-59.8841 h 15.9646 15.9645 l -26.0899,78.1347 -26.0899,78.1347 v 51.6876 51.6875 h -16.2278 -16.2278 z"
       style="fill:#606a70;fill-opacity:1;stroke-width:0.0933392"
       id="path14008" />
  </g>
</svg>
